{"glyphs":{"0":{"ha":908,"x_min":44,"x_max":863,"o":"m 453 999 q 648 943 563 999 q 778 799 733 888 q 842 604 822 711 q 842 390 863 497 q 776 194 821 283 q 647 51 732 106 q 453 -4 561 -4 q 260 51 344 -4 q 131 196 175 107 q 67 392 88 285 q 67 605 46 499 q 131 799 88 711 q 260 943 175 888 q 453 999 344 999 m 453 36 q 558 181 519 36 q 596 498 596 325 q 558 815 596 671 q 453 958 519 958 q 348 815 386 958 q 310 498 310 671 q 348 181 310 325 q 453 36 386 36 z "},"1":{"ha":544,"x_min":50,"x_max":496,"o":"m 407 163 q 432 72 407 104 q 496 40 457 40 l 496 13 l 50 13 l 50 40 q 122 71 92 40 q 153 164 153 101 l 153 867 l 50 867 l 50 897 q 382 999 219 919 l 407 985 l 407 163 z "},"2":{"ha":890,"x_min":40,"x_max":831,"o":"m 790 246 l 801 297 l 829 297 l 829 10 l 53 10 l 40 38 q 211 178 133 104 q 360 342 289 251 q 471 542 431 433 q 511 761 511 650 q 390 964 511 964 q 284 904 336 964 q 201 773 232 844 q 154 638 169 701 l 63 860 q 475 1018 249 1018 q 593 1001 536 1018 q 697 951 650 983 q 773 863 744 918 q 801 736 801 807 q 772 594 801 664 q 698 473 742 525 q 588 369 654 421 q 467 283 521 317 q 343 213 413 250 l 760 213 q 781 219 775 213 q 790 246 786 225 z "},"3":{"ha":861,"x_min":58,"x_max":835,"o":"m 556 528 q 776 393 714 506 q 781 185 833 292 q 540 17 718 60 q 378 -1 467 -1 q 58 56 165 -1 l 78 286 l 110 286 q 143 190 126 228 q 188 113 160 151 q 256 56 215 75 q 353 38 297 38 q 476 85 426 38 q 535 203 525 133 q 531 341 544 272 q 464 458 517 410 q 335 506 411 506 l 279 506 l 279 547 l 336 547 q 493 660 451 547 q 490 857 528 756 q 383 963 456 953 q 368 964 375 964 q 289 928 329 964 q 215 837 249 893 q 160 733 182 781 q 119 639 138 686 l 60 886 q 435 1018 222 1018 q 601 988 529 1018 q 708 912 672 958 q 753 808 743 865 q 743 696 763 750 q 675 596 724 642 q 556 528 626 550 z "},"4":{"ha":810,"x_min":25,"x_max":758,"o":"m 665 233 l 665 151 q 692 67 665 94 q 758 40 718 40 l 758 13 l 276 13 l 276 40 q 351 67 319 40 q 382 151 382 93 l 382 233 l 33 233 l 25 265 l 482 982 l 665 982 l 665 272 l 754 272 l 754 233 l 665 233 m 382 272 l 382 746 l 86 272 l 382 272 z "},"5":{"ha":836,"x_min":56,"x_max":793,"o":"m 158 578 q 633 542 453 657 q 774 335 756 464 q 696 108 792 204 q 374 -1 585 -1 q 57 56 164 -1 l 76 286 l 108 286 q 133 210 122 240 q 165 144 144 179 q 208 87 185 108 q 267 51 231 65 q 346 38 303 38 q 496 143 446 38 q 514 368 546 249 q 361 542 478 500 q 150 539 271 574 l 111 539 l 144 982 l 744 982 l 744 700 l 721 700 q 601 779 686 781 q 508 779 574 779 q 336 779 442 779 q 174 779 231 779 l 158 578 z "},"6":{"ha":926,"x_min":35,"x_max":901,"o":"m 526 626 q 822 496 726 626 q 868 257 900 389 q 700 49 835 119 q 467 -4 601 -4 q 138 150 254 -4 q 58 474 35 286 q 249 824 83 681 q 689 1000 418 971 l 700 968 q 460 844 542 933 q 351 593 379 754 q 526 626 432 626 m 471 32 q 542 62 510 32 q 592 140 574 92 q 619 244 610 188 q 622 359 629 301 q 598 465 615 417 q 543 542 581 513 q 456 572 506 572 q 344 547 397 572 q 339 484 342 514 q 333 399 336 454 q 332 298 331 343 q 342 201 333 253 q 365 115 350 150 q 406 56 379 79 q 471 32 433 32 z "},"7":{"ha":853,"x_min":44,"x_max":785,"o":"m 44 982 l 768 982 l 783 961 q 449 13 533 575 l 196 13 q 290 287 217 139 q 445 549 364 435 q 626 779 526 664 l 143 779 q 99 753 118 779 q 72 696 79 726 l 44 696 l 44 982 z "},"8":{"ha":881,"x_min":29,"x_max":833,"o":"m 608 551 q 744 456 692 513 q 815 338 797 399 q 818 215 833 276 q 758 105 803 153 q 630 26 713 57 q 442 -4 547 -4 q 93 121 182 -4 q 82 314 31 208 q 250 456 131 414 q 260 458 254 457 q 140 558 186 499 q 82 678 94 617 q 86 801 69 739 q 146 910 103 863 q 263 988 189 958 q 432 1018 338 1018 q 567 999 504 1018 q 673 949 631 981 q 742 877 715 917 q 770 794 769 838 q 751 710 771 750 q 681 634 732 669 q 551 578 629 599 l 608 551 m 438 982 q 344 955 381 982 q 300 885 307 928 q 305 796 293 843 q 355 703 317 749 q 449 629 393 658 l 518 593 q 589 701 565 635 q 608 829 613 767 q 560 937 604 892 q 438 982 515 982 m 442 32 q 569 67 517 32 q 621 160 621 103 q 615 196 621 178 q 592 233 608 214 q 562 266 575 251 q 522 301 549 281 q 480 332 494 321 q 432 363 465 343 q 389 389 399 383 q 345 413 379 394 q 311 432 311 432 q 244 244 244 374 q 294 88 244 144 q 442 32 343 32 z "},"9":{"ha":926,"x_min":24,"x_max":890,"o":"m 399 369 q 103 500 199 369 q 57 739 25 607 q 225 947 92 876 q 458 1000 324 1000 q 788 846 672 1000 q 868 522 890 710 q 678 172 843 315 q 238 -4 508 25 l 226 28 q 465 153 383 64 q 574 403 547 242 q 399 369 493 369 m 454 964 q 385 934 417 964 q 334 857 353 904 q 306 752 315 810 q 303 637 296 694 q 328 531 310 579 q 383 453 346 483 q 469 424 419 424 q 581 449 528 424 q 588 513 585 482 q 592 598 590 543 q 593 698 594 653 q 584 795 592 743 q 561 882 576 847 q 519 940 546 917 q 454 964 492 964 z "},"\u000b":{"ha":732,"x_min":69,"x_max":663,"o":"m 69 972 l 663 972 l 663 0 l 69 0 l 69 972 m 108 944 l 365 515 l 624 944 l 108 944 m 349 486 l 99 903 l 99 68 l 349 486 m 367 457 l 110 29 l 624 29 l 367 457 m 383 486 l 635 65 l 635 906 l 383 486 z "},"\f":{"ha":732,"x_min":69,"x_max":663,"o":"m 69 972 l 663 972 l 663 0 l 69 0 l 69 972 m 108 944 l 365 515 l 624 944 l 108 944 m 349 486 l 99 903 l 99 68 l 349 486 m 367 457 l 110 29 l 624 29 l 367 457 m 383 486 l 635 65 l 635 906 l 383 486 z "},"¤":{"ha":732,"x_min":69,"x_max":663,"o":"m 69 972 l 663 972 l 663 0 l 69 0 l 69 972 m 108 944 l 365 515 l 624 944 l 108 944 m 349 486 l 99 903 l 99 68 l 349 486 m 367 457 l 110 29 l 624 29 l 367 457 m 383 486 l 635 65 l 635 906 l 383 486 z "},"¦":{"ha":732,"x_min":69,"x_max":663,"o":"m 69 972 l 663 972 l 663 0 l 69 0 l 69 972 m 108 944 l 365 515 l 624 944 l 108 944 m 349 486 l 99 903 l 99 68 l 349 486 m 367 457 l 110 29 l 624 29 l 367 457 m 383 486 l 635 65 l 635 906 l 383 486 z "},"¨":{"ha":732,"x_min":69,"x_max":663,"o":"m 69 972 l 663 972 l 663 0 l 69 0 l 69 972 m 108 944 l 365 515 l 624 944 l 108 944 m 349 486 l 99 903 l 99 68 l 349 486 m 367 457 l 110 29 l 624 29 l 367 457 m 383 486 l 635 65 l 635 906 l 383 486 z "},"¬":{"ha":732,"x_min":69,"x_max":663,"o":"m 69 972 l 663 972 l 663 0 l 69 0 l 69 972 m 108 944 l 365 515 l 624 944 l 108 944 m 349 486 l 99 903 l 99 68 l 349 486 m 367 457 l 110 29 l 624 29 l 367 457 m 383 486 l 635 65 l 635 906 l 383 486 z "},"¯":{"ha":732,"x_min":69,"x_max":663,"o":"m 69 972 l 663 972 l 663 0 l 69 0 l 69 972 m 108 944 l 365 515 l 624 944 l 108 944 m 349 486 l 99 903 l 99 68 l 349 486 m 367 457 l 110 29 l 624 29 l 367 457 m 383 486 l 635 65 l 635 906 l 383 486 z "},"±":{"ha":732,"x_min":69,"x_max":663,"o":"m 69 972 l 663 972 l 663 0 l 69 0 l 69 972 m 108 944 l 365 515 l 624 944 l 108 944 m 349 486 l 99 903 l 99 68 l 349 486 m 367 457 l 110 29 l 624 29 l 367 457 m 383 486 l 635 65 l 635 906 l 383 486 z "},"´":{"ha":732,"x_min":69,"x_max":663,"o":"m 69 972 l 663 972 l 663 0 l 69 0 l 69 972 m 108 944 l 365 515 l 624 944 l 108 944 m 349 486 l 99 903 l 99 68 l 349 486 m 367 457 l 110 29 l 624 29 l 367 457 m 383 486 l 635 65 l 635 906 l 383 486 z "},"µ":{"ha":732,"x_min":69,"x_max":663,"o":"m 69 972 l 663 972 l 663 0 l 69 0 l 69 972 m 108 944 l 365 515 l 624 944 l 108 944 m 349 486 l 99 903 l 99 68 l 349 486 m 367 457 l 110 29 l 624 29 l 367 457 m 383 486 l 635 65 l 635 906 l 383 486 z "},"¶":{"ha":732,"x_min":69,"x_max":663,"o":"m 69 972 l 663 972 l 663 0 l 69 0 l 69 972 m 108 944 l 365 515 l 624 944 l 108 944 m 349 486 l 99 903 l 99 68 l 349 486 m 367 457 l 110 29 l 624 29 l 367 457 m 383 486 l 635 65 l 635 906 l 383 486 z "},"¸":{"ha":732,"x_min":69,"x_max":663,"o":"m 69 972 l 663 972 l 663 0 l 69 0 l 69 972 m 108 944 l 365 515 l 624 944 l 108 944 m 349 486 l 99 903 l 99 68 l 349 486 m 367 457 l 110 29 l 624 29 l 367 457 m 383 486 l 635 65 l 635 906 l 383 486 z "},"―":{"ha":732,"x_min":69,"x_max":663,"o":"m 69 972 l 663 972 l 663 0 l 69 0 l 69 972 m 108 944 l 365 515 l 624 944 l 108 944 m 349 486 l 99 903 l 99 68 l 349 486 m 367 457 l 110 29 l 624 29 l 367 457 m 383 486 l 635 65 l 635 906 l 383 486 z "},"‖":{"ha":732,"x_min":69,"x_max":663,"o":"m 69 972 l 663 972 l 663 0 l 69 0 l 69 972 m 108 944 l 365 515 l 624 944 l 108 944 m 349 486 l 99 903 l 99 68 l 349 486 m 367 457 l 110 29 l 624 29 l 367 457 m 383 486 l 635 65 l 635 906 l 383 486 z "},"‗":{"ha":732,"x_min":69,"x_max":663,"o":"m 69 972 l 663 972 l 663 0 l 69 0 l 69 972 m 108 944 l 365 515 l 624 944 l 108 944 m 349 486 l 99 903 l 99 68 l 349 486 m 367 457 l 110 29 l 624 29 l 367 457 m 383 486 l 635 65 l 635 906 l 383 486 z "},"‚":{"ha":732,"x_min":69,"x_max":663,"o":"m 69 972 l 663 972 l 663 0 l 69 0 l 69 972 m 108 944 l 365 515 l 624 944 l 108 944 m 349 486 l 99 903 l 99 68 l 349 486 m 367 457 l 110 29 l 624 29 l 367 457 m 383 486 l 635 65 l 635 906 l 383 486 z "},"‛":{"ha":732,"x_min":69,"x_max":663,"o":"m 69 972 l 663 972 l 663 0 l 69 0 l 69 972 m 108 944 l 365 515 l 624 944 l 108 944 m 349 486 l 99 903 l 99 68 l 349 486 m 367 457 l 110 29 l 624 29 l 367 457 m 383 486 l 635 65 l 635 906 l 383 486 z "},"‟":{"ha":732,"x_min":69,"x_max":663,"o":"m 69 972 l 663 972 l 663 0 l 69 0 l 69 972 m 108 944 l 365 515 l 624 944 l 108 944 m 349 486 l 99 903 l 99 68 l 349 486 m 367 457 l 110 29 l 624 29 l 367 457 m 383 486 l 635 65 l 635 906 l 383 486 z "},"‡":{"ha":732,"x_min":69,"x_max":663,"o":"m 69 972 l 663 972 l 663 0 l 69 0 l 69 972 m 108 944 l 365 515 l 624 944 l 108 944 m 349 486 l 99 903 l 99 68 l 349 486 m 367 457 l 110 29 l 624 29 l 367 457 m 383 486 l 635 65 l 635 906 l 383 486 z "},"‣":{"ha":732,"x_min":69,"x_max":663,"o":"m 69 972 l 663 972 l 663 0 l 69 0 l 69 972 m 108 944 l 365 515 l 624 944 l 108 944 m 349 486 l 99 903 l 99 68 l 349 486 m 367 457 l 110 29 l 624 29 l 367 457 m 383 486 l 635 65 l 635 906 l 383 486 z "},"․":{"ha":732,"x_min":69,"x_max":663,"o":"m 69 972 l 663 972 l 663 0 l 69 0 l 69 972 m 108 944 l 365 515 l 624 944 l 108 944 m 349 486 l 99 903 l 99 68 l 349 486 m 367 457 l 110 29 l 624 29 l 367 457 m 383 486 l 635 65 l 635 906 l 383 486 z "},"‥":{"ha":732,"x_min":69,"x_max":663,"o":"m 69 972 l 663 972 l 663 0 l 69 0 l 69 972 m 108 944 l 365 515 l 624 944 l 108 944 m 349 486 l 99 903 l 99 68 l 349 486 m 367 457 l 110 29 l 624 29 l 367 457 m 383 486 l 635 65 l 635 906 l 383 486 z "},"\u0000":{"ha":0,"x_min":0,"x_max":0,"o":""},"\n":{"ha":0,"x_min":0,"x_max":0,"o":""},"\r":{"ha":0,"x_min":0,"x_max":0,"o":""}," ":{"ha":524,"x_min":0,"x_max":0,"o":""},"!":{"ha":375,"x_min":57,"x_max":318,"o":"m 57 946 q 106 982 72 969 q 188 994 140 994 q 268 982 235 994 q 317 946 301 969 l 210 318 l 165 318 l 57 946 m 269 33 q 253 17 269 33 q 188 0 236 0 q 105 33 139 0 q 71 114 71 67 q 105 194 71 161 q 188 228 139 228 q 269 194 236 228 q 303 114 303 161 q 269 33 303 67 z "},"\"":{"ha":582,"x_min":44,"x_max":538,"o":"m 44 979 q 146 994 86 994 q 247 979 206 994 l 163 608 l 129 608 l 44 979 m 335 979 q 436 994 376 994 q 538 979 496 994 l 453 608 l 419 608 l 335 979 z "},"#":{"ha":906,"x_min":39,"x_max":861,"o":"m 303 679 l 346 981 l 390 981 l 346 679 l 631 683 l 674 981 l 718 981 l 675 683 l 860 686 l 860 633 l 668 635 l 628 357 l 813 360 l 813 307 l 621 308 l 579 11 l 535 11 l 576 310 l 294 313 l 253 11 l 208 11 l 251 314 l 40 317 l 40 350 l 257 353 l 297 640 l 88 643 l 88 676 l 303 679 m 300 353 l 583 357 l 624 636 l 340 639 l 300 353 z "},"$":{"ha":904,"x_min":61,"x_max":849,"o":"m 419 -6 q 228 15 331 -4 q 69 61 126 33 l 93 306 l 132 306 q 192 138 153 197 q 285 55 231 78 q 419 32 340 32 l 419 374 l 378 393 q 197 482 258 444 q 98 578 135 519 q 61 731 61 638 q 147 924 61 858 q 419 996 233 990 l 419 1119 l 461 1119 l 461 997 q 634 978 550 996 q 774 933 718 960 l 756 722 l 715 722 q 657 852 686 804 q 581 928 628 900 q 461 960 535 957 l 461 639 l 524 610 q 717 508 658 544 q 812 415 776 471 q 847 269 847 360 q 754 70 847 139 q 461 -4 661 1 l 461 -126 l 419 -126 l 419 -6 m 258 842 q 292 744 258 781 q 419 660 326 707 l 419 958 q 258 842 258 951 m 613 167 q 578 271 613 229 q 461 354 543 313 l 461 33 q 572 75 532 40 q 613 167 613 110 z "},"%":{"ha":1113,"x_min":43,"x_max":1067,"o":"m 106 930 q 137 961 106 930 q 277 992 168 992 q 448 930 386 992 q 510 763 510 868 q 448 594 510 657 q 277 532 386 532 q 106 594 168 532 q 44 763 44 657 q 106 930 44 868 m 217 606 q 225 582 217 606 q 277 557 233 557 q 337 606 321 557 q 353 763 353 656 q 337 918 353 869 q 277 967 321 967 q 217 918 233 967 q 201 763 201 869 q 217 606 201 656 m 811 981 l 853 981 l 299 11 l 258 11 l 811 981 m 663 398 q 694 429 663 398 q 834 460 725 460 q 1005 398 943 460 q 1067 231 1067 336 q 1005 63 1067 125 q 834 0 943 0 q 663 63 725 0 q 601 231 601 125 q 663 398 601 336 m 773 74 q 781 50 773 74 q 833 25 789 25 q 894 74 878 25 q 910 231 910 124 q 894 387 910 338 q 833 436 878 436 q 773 387 789 436 q 757 231 757 338 q 773 74 757 124 z "},"&":{"ha":1146,"x_min":47,"x_max":1113,"o":"m 551 960 q 429 860 429 960 q 460 753 429 813 q 536 640 490 694 l 803 322 l 915 478 q 917 513 926 494 q 886 532 908 532 l 886 563 l 1090 563 l 1090 535 l 1036 531 q 1004 523 1015 529 q 981 500 993 517 l 826 294 l 1008 78 q 1034 54 1022 63 q 1061 44 1046 46 l 1113 39 l 1113 11 l 725 11 l 657 92 q 531 15 593 35 q 383 -6 469 -6 q 135 60 222 -6 q 49 260 49 125 q 278 547 49 461 q 217 721 217 638 q 301 919 217 842 q 549 997 385 997 q 807 942 708 997 l 772 753 l 733 753 q 688 886 703 851 q 642 940 672 921 q 551 960 613 960 m 457 60 q 556 74 513 60 q 635 118 599 89 l 310 506 l 300 517 q 270 444 279 488 q 261 335 261 401 q 315 129 261 199 q 457 60 369 60 z "},"'":{"ha":292,"x_min":44,"x_max":247,"o":"m 44 979 q 146 994 86 994 q 247 979 206 994 l 163 608 l 129 608 l 44 979 z "},"(":{"ha":393,"x_min":58,"x_max":465,"o":"m 60 483 q 60 592 60 483 q 155 849 60 701 q 443 1111 250 996 l 464 1090 q 331 954 376 1032 q 267 766 285 876 q 250 483 250 656 q 267 199 250 310 q 330 11 283 89 q 464 -125 376 -67 l 443 -146 q 155 117 250 -31 q 60 483 60 264 z "},")":{"ha":393,"x_min":-72,"x_max":333,"o":"m 332 483 q 332 373 332 483 q 238 117 332 264 q -51 -146 143 -31 l -72 -125 q 62 11 15 -67 q 126 199 108 89 q 143 483 143 310 q 126 766 143 656 q 62 954 108 876 q -72 1090 15 1032 l -51 1111 q 238 849 143 996 q 332 483 332 701 z "},"*":{"ha":707,"x_min":49,"x_max":658,"o":"m 636 854 q 658 765 658 817 q 656 736 658 756 l 371 736 l 583 547 q 546 502 572 524 q 493 472 519 481 l 353 718 l 214 472 q 161 502 188 481 q 124 547 135 524 l 333 736 l 51 736 q 49 765 49 756 q 71 854 49 817 l 340 760 l 293 1040 q 353 1050 317 1050 q 413 1040 389 1050 l 364 760 l 636 854 z "},"+":{"ha":654,"x_min":35,"x_max":619,"o":"m 619 446 l 347 446 l 347 174 l 306 174 l 306 446 l 35 446 l 35 485 l 306 485 l 306 758 l 347 758 l 347 485 l 619 485 l 619 446 z "},",":{"ha":332,"x_min":44,"x_max":285,"o":"m 153 13 q 73 42 100 13 q 46 117 46 72 q 77 196 46 164 q 163 228 108 228 q 251 197 218 228 q 283 106 283 165 q 235 -57 283 25 q 117 -194 188 -139 l 89 -165 q 179 14 179 -69 q 153 13 169 13 z "},"-":{"ha":383,"x_min":31,"x_max":353,"o":"m 351 378 l 31 378 l 31 417 l 351 417 l 351 378 z "},".":{"ha":325,"x_min":46,"x_max":279,"o":"m 244 33 q 228 17 244 33 q 163 0 211 0 q 80 33 114 0 q 46 114 46 67 q 80 194 46 161 q 163 228 114 228 q 244 194 211 228 q 278 114 278 161 q 244 33 278 67 z "},"/":{"ha":397,"x_min":36,"x_max":369,"o":"m 368 997 l 78 -6 l 36 -6 l 326 997 l 368 997 z "},":":{"ha":342,"x_min":54,"x_max":288,"o":"m 253 507 q 236 490 253 507 q 171 474 219 474 q 88 507 122 474 q 54 588 54 540 q 88 668 54 635 q 171 701 122 701 q 253 668 219 701 q 286 588 286 635 q 253 507 286 540 m 253 33 q 236 17 253 33 q 171 0 219 0 q 88 33 122 0 q 54 114 54 67 q 88 194 54 161 q 171 228 122 228 q 253 194 219 228 q 286 114 286 161 q 253 33 286 67 z "},";":{"ha":347,"x_min":53,"x_max":293,"o":"m 161 13 q 81 42 108 13 q 54 117 54 72 q 85 196 54 164 q 171 228 117 228 q 259 197 226 228 q 292 106 292 165 q 244 -57 292 25 q 125 -194 196 -139 l 97 -165 q 188 14 188 -69 q 161 13 178 13 m 256 507 q 239 490 256 507 q 174 474 222 474 q 91 507 125 474 q 57 588 57 540 q 91 668 57 635 q 174 701 125 701 q 256 668 222 701 q 289 588 289 635 q 256 507 289 540 z "},"=":{"ha":657,"x_min":36,"x_max":621,"o":"m 621 571 l 36 571 l 36 610 l 621 610 l 621 571 m 621 322 l 36 322 l 36 361 l 621 361 l 621 322 z "},"?":{"ha":800,"x_min":69,"x_max":754,"o":"m 490 768 q 332 928 490 928 q 203 909 257 928 q 86 846 150 890 l 69 872 q 241 965 154 932 q 460 997 328 997 q 678 943 603 997 q 754 781 754 889 q 665 587 754 651 q 435 499 575 522 l 417 318 l 378 318 l 363 499 q 490 768 490 600 m 480 33 q 463 17 480 33 q 397 0 446 0 q 315 33 349 0 q 282 114 282 67 q 315 194 282 161 q 397 228 349 228 q 480 194 446 228 q 514 114 514 161 q 480 33 514 67 z "},"@":{"ha":1406,"x_min":54,"x_max":1349,"o":"m 1083 199 q 1094 130 1083 144 q 1132 115 1104 115 q 1210 153 1171 115 q 1276 264 1250 192 q 1303 433 1303 336 q 1241 676 1303 581 q 1076 814 1179 771 q 850 857 974 857 q 547 788 678 857 q 344 595 415 719 q 272 311 272 471 q 408 -42 272 71 q 789 -154 544 -154 q 985 -122 888 -154 q 1156 -31 1082 -89 l 1178 -65 q 980 -170 1093 -133 q 733 -207 867 -207 q 401 -151 554 -207 q 151 24 247 -96 q 56 327 56 143 q 149 651 56 511 q 406 866 243 790 q 774 942 569 942 q 1194 816 1042 942 q 1347 443 1347 690 q 1309 230 1347 322 q 1201 87 1271 138 q 1033 36 1131 36 q 893 58 936 36 q 836 126 850 81 q 606 36 743 36 q 480 73 525 36 q 435 185 435 110 q 479 305 435 261 q 610 367 524 349 q 836 389 696 385 l 836 478 q 810 576 836 547 q 718 604 785 604 q 615 589 663 604 q 517 543 568 574 l 500 568 q 640 635 558 610 q 825 660 722 660 q 1024 605 964 660 q 1083 447 1083 550 l 1083 199 m 743 115 q 789 128 768 115 q 836 167 810 140 l 836 356 q 733 333 767 350 q 689 285 700 315 q 678 201 678 256 q 692 135 678 154 q 743 115 707 115 z "},"A":{"ha":1011,"x_min":-12,"x_max":1024,"o":"m 882 133 q 931 68 900 93 q 983 37 961 43 q 1024 31 1004 31 l 1024 3 l 582 3 l 582 31 q 610 37 600 29 q 624 68 621 44 q 606 138 628 92 l 564 232 l 215 232 l 176 138 q 176 136 176 138 l 169 118 q 159 62 154 82 q 174 35 164 42 q 200 31 185 29 l 200 3 l -12 3 l -12 31 q 28 37 7 31 q 79 67 49 43 q 128 132 110 92 l 482 967 l 508 967 l 879 138 l 879 138 l 882 133 m 231 269 l 547 269 l 382 642 l 231 269 z "},"B":{"ha":917,"x_min":21,"x_max":915,"o":"m 585 517 q 844 407 758 518 q 882 206 915 315 q 714 36 847 89 q 522 3 632 3 l 21 3 l 21 31 q 78 51 51 29 q 106 136 106 74 l 106 838 q 79 924 106 901 q 21 944 53 946 l 21 972 l 514 972 q 700 929 624 972 q 798 822 776 886 q 808 694 819 758 q 737 578 797 629 q 585 517 676 528 m 356 931 l 356 535 l 424 535 q 498 556 465 535 q 547 613 531 578 q 569 691 563 649 q 567 775 576 733 q 541 852 558 817 q 492 909 524 888 q 424 931 461 931 l 356 931 m 418 44 q 558 91 501 44 q 630 203 615 138 q 632 335 644 269 q 565 447 619 400 q 429 493 510 493 l 356 493 l 356 44 l 418 44 z "},"C":{"ha":925,"x_min":26,"x_max":910,"o":"m 626 56 q 881 150 763 56 l 908 119 q 738 20 838 54 q 535 -14 639 -14 q 338 21 428 -14 q 188 113 247 56 q 88 246 129 171 q 36 404 46 321 q 35 571 26 488 q 84 729 43 654 q 184 863 125 804 q 336 955 243 921 q 542 989 429 989 q 722 973 626 989 q 881 926 818 957 l 861 689 l 822 689 q 782 788 804 744 q 726 869 760 831 q 647 928 693 907 q 543 949 600 949 q 338 794 410 949 q 292 443 267 643 q 438 125 318 231 q 626 56 518 56 z "},"D":{"ha":1008,"x_min":21,"x_max":979,"o":"m 514 972 q 714 931 624 972 q 860 821 804 889 q 947 665 917 753 q 977 488 976 578 q 948 310 978 397 q 863 154 918 222 q 717 44 807 86 q 514 3 626 3 l 21 3 l 21 31 q 79 54 53 31 q 106 139 106 78 l 106 836 q 83 923 106 901 q 21 944 60 944 l 21 972 l 514 972 m 413 44 q 584 110 511 44 q 690 274 657 176 q 722 488 722 372 q 690 701 722 603 q 584 865 657 800 q 413 931 511 931 l 356 931 l 356 44 l 413 44 z "},"E":{"ha":822,"x_min":19,"x_max":785,"o":"m 490 44 q 567 51 533 44 q 625 74 600 58 q 667 107 650 90 q 700 154 685 124 q 725 210 715 185 q 749 278 735 236 l 785 278 l 785 3 l 21 3 l 21 31 q 79 51 53 29 q 106 138 106 74 l 106 838 q 79 924 106 901 q 21 944 53 946 l 21 972 l 765 972 l 765 703 l 731 703 q 701 786 714 756 q 669 849 689 817 q 624 896 649 881 q 563 921 600 911 q 476 931 526 931 l 363 931 l 363 519 l 524 519 l 524 478 l 363 478 l 363 44 l 490 44 z "},"F":{"ha":760,"x_min":21,"x_max":750,"o":"m 106 972 l 749 972 l 749 703 l 714 703 q 659 838 685 792 q 588 907 633 883 q 460 931 542 931 l 363 931 l 363 519 l 524 519 l 524 478 l 363 478 l 363 136 q 389 51 363 74 q 447 31 415 29 l 447 3 l 21 3 l 21 31 q 78 51 51 29 q 106 136 104 74 l 106 839 q 78 924 104 901 q 21 944 51 946 l 21 972 l 106 972 z "},"G":{"ha":981,"x_min":26,"x_max":940,"o":"m 551 386 l 551 428 l 940 428 l 940 64 q 771 24 926 61 q 535 -14 615 -14 q 338 21 428 -14 q 188 113 247 56 q 88 246 129 171 q 36 404 46 321 q 35 571 26 488 q 84 729 43 654 q 184 863 125 804 q 336 955 243 921 q 542 989 429 989 q 722 973 626 989 q 881 926 818 957 l 861 689 l 822 689 q 782 788 804 744 q 726 869 760 831 q 647 928 693 907 q 543 949 600 949 q 338 794 410 949 q 292 443 267 643 q 438 125 318 231 q 626 56 518 56 q 657 56 631 56 q 689 56 683 57 l 689 386 l 551 386 z "},"H":{"ha":1015,"x_min":19,"x_max":994,"o":"m 574 972 l 993 972 l 993 944 q 936 924 963 946 q 910 839 910 901 l 910 136 q 936 51 910 74 q 993 31 963 29 l 993 3 l 574 3 l 574 31 q 632 51 606 29 q 658 138 658 74 l 658 274 l 660 274 l 660 478 l 356 478 l 356 138 q 382 51 356 74 q 440 31 408 29 l 440 3 l 21 3 l 21 31 q 79 51 53 29 q 106 138 106 74 l 106 274 l 106 701 l 106 838 q 79 924 106 901 q 21 944 53 946 l 21 972 l 440 972 l 440 944 q 382 924 408 946 q 356 838 356 901 l 356 519 l 660 519 l 660 701 l 658 701 l 658 838 q 632 924 658 901 q 574 944 606 946 l 574 972 z "},"I":{"ha":464,"x_min":22,"x_max":442,"o":"m 22 972 l 442 972 l 442 944 q 390 928 414 946 q 358 864 365 911 l 358 111 q 390 47 365 64 q 442 31 414 29 l 442 3 l 22 3 l 22 31 q 74 47 50 29 q 106 111 99 64 l 106 864 q 74 928 99 911 q 22 944 50 946 l 22 972 z "},"J":{"ha":751,"x_min":7,"x_max":738,"o":"m 318 972 l 738 972 l 738 944 q 679 924 706 946 q 653 839 653 901 l 653 315 q 626 160 653 225 q 547 57 599 94 q 428 3 494 19 q 274 -14 361 -14 q 138 3 213 -14 q 7 44 64 19 l 39 288 l 75 288 q 84 237 81 254 q 95 187 88 219 q 111 135 103 154 q 134 92 119 117 q 166 56 149 68 q 208 33 183 43 q 263 24 233 24 q 314 33 292 24 q 350 55 336 42 q 374 92 364 68 q 388 133 383 115 q 396 183 393 151 q 399 231 399 214 q 399 278 399 247 q 399 288 399 285 l 399 874 q 367 931 390 915 q 318 944 343 946 l 318 972 z "},"K":{"ha":949,"x_min":19,"x_max":956,"o":"m 853 71 q 918 31 879 31 l 956 31 l 956 3 l 664 3 q 606 13 624 3 q 569 50 588 22 l 378 397 l 356 367 l 356 274 l 356 138 q 382 51 356 74 q 440 31 408 29 l 440 3 l 21 3 l 21 31 q 78 51 51 29 q 106 133 104 72 l 106 842 q 78 924 104 903 q 21 944 51 946 l 21 972 l 440 972 l 440 944 q 382 924 408 946 q 356 838 356 901 l 356 701 l 356 417 l 657 839 q 690 902 683 878 q 691 935 697 926 q 668 944 685 944 l 668 972 l 894 972 l 894 944 q 806 915 865 944 q 713 840 747 886 l 494 540 q 572 521 546 540 q 621 460 599 501 l 853 71 z "},"L":{"ha":789,"x_min":21,"x_max":778,"o":"m 483 44 q 593 60 547 44 q 668 110 639 76 q 715 182 697 143 q 746 278 732 221 l 778 278 l 778 3 l 21 3 l 21 31 q 79 51 53 29 q 106 138 106 74 l 106 274 l 106 701 l 106 838 q 79 924 106 901 q 21 944 53 946 l 21 972 l 439 972 l 439 944 q 384 926 410 946 q 356 849 358 906 l 356 44 l 483 44 z "},"M":{"ha":1056,"x_min":19,"x_max":1035,"o":"m 701 972 l 1033 972 l 1033 944 q 976 924 1003 946 q 950 840 950 901 l 950 135 q 976 51 950 74 q 1033 31 1003 29 l 1033 3 l 615 3 l 615 31 q 672 51 646 29 q 700 135 699 74 l 700 854 l 453 3 l 411 3 l 150 818 l 150 122 q 178 49 153 68 q 233 31 204 29 l 233 3 l 21 3 l 21 31 q 78 51 51 29 q 106 131 104 72 l 106 839 q 78 924 106 901 q 21 944 51 946 l 21 972 l 375 972 l 539 411 l 701 972 z "},"N":{"ha":917,"x_min":21,"x_max":899,"o":"m 685 972 l 897 972 l 897 944 q 842 925 868 946 q 814 846 815 904 l 814 3 l 739 3 l 150 882 l 150 118 q 179 48 154 67 q 233 31 204 29 l 233 3 l 21 3 l 21 31 q 79 51 53 29 q 106 138 106 74 l 106 274 l 106 815 q 78 913 106 882 q 21 944 51 944 l 21 972 l 401 972 l 769 410 l 769 853 q 740 926 765 907 q 685 944 714 946 l 685 972 z "},"O":{"ha":1019,"x_min":28,"x_max":992,"o":"m 508 989 q 698 955 611 989 q 840 863 785 921 q 935 729 896 804 q 982 571 974 654 q 982 404 990 488 q 935 246 974 321 q 840 113 896 171 q 699 21 785 56 q 509 -14 613 -14 q 319 21 406 -14 q 178 113 233 56 q 83 246 122 171 q 36 404 44 321 q 36 571 28 488 q 84 729 44 654 q 179 863 124 804 q 321 955 235 921 q 508 989 407 989 m 676 58 q 747 119 721 75 q 777 223 772 164 q 774 353 782 282 q 742 496 765 424 q 686 639 718 568 q 613 767 654 710 q 527 865 571 824 q 435 919 483 906 q 342 917 386 933 q 271 856 297 900 q 240 753 244 813 q 243 623 235 694 q 276 479 251 551 q 331 336 300 407 q 404 208 363 265 q 490 110 446 151 q 582 56 533 69 q 676 58 631 42 z "},"P":{"ha":836,"x_min":21,"x_max":824,"o":"m 439 972 q 590 952 521 972 q 703 899 658 932 q 778 821 747 865 q 817 728 810 776 q 817 632 824 681 q 779 540 810 583 q 705 462 749 496 q 592 408 661 428 q 443 388 524 388 l 356 388 l 356 138 q 382 51 356 74 q 439 31 408 29 l 439 3 l 21 3 l 21 31 q 78 51 51 29 q 106 132 104 72 l 106 843 q 78 924 104 903 q 21 944 51 946 l 21 972 l 439 972 m 403 429 q 496 467 457 429 q 552 560 535 504 q 569 680 569 615 q 551 801 569 744 q 494 894 533 857 q 403 931 456 931 l 356 931 l 356 429 l 403 429 z "},"Q":{"ha":1018,"x_min":25,"x_max":990,"o":"m 508 989 q 698 955 611 989 q 840 863 785 921 q 935 729 896 804 q 982 571 974 654 q 982 404 990 488 q 935 246 974 321 q 840 113 896 171 q 698 21 785 56 q 508 -14 611 -14 q 463 -12 486 -14 q 634 -54 510 -18 q 829 -90 758 -90 q 875 -76 857 -90 q 908 -32 893 -61 l 939 -39 q 924 -97 931 -74 q 901 -156 917 -121 q 869 -211 886 -190 q 826 -248 853 -232 q 767 -264 799 -264 q 674 -247 722 -264 q 582 -204 626 -229 q 490 -154 538 -179 q 385 -111 443 -129 q 269 -93 328 -93 l 269 -76 q 403 -7 321 -7 q 433 -8 418 -7 q 251 56 332 6 q 122 179 169 107 q 50 340 74 251 q 31 519 26 429 q 69 693 36 608 q 160 844 103 778 q 308 949 218 910 q 508 989 399 989 m 342 917 q 271 856 297 900 q 240 753 244 813 q 243 623 235 694 q 276 479 251 551 q 331 336 300 407 q 404 208 363 265 q 490 110 446 151 q 582 56 533 69 q 676 58 631 42 q 747 119 721 75 q 777 223 772 164 q 774 353 782 282 q 742 496 765 424 q 686 639 718 568 q 613 767 654 710 q 527 865 571 824 q 435 919 483 906 q 342 917 386 933 z "},"R":{"ha":992,"x_min":22,"x_max":1000,"o":"m 903 53 q 934 69 914 53 q 971 104 954 85 l 999 79 q 917 12 964 35 q 826 -11 871 -11 q 672 41 732 -11 q 590 219 611 93 l 574 322 q 562 380 568 357 q 544 419 556 403 q 524 443 533 435 q 492 456 514 451 q 452 462 471 461 q 397 463 433 463 l 357 463 l 357 133 q 383 51 357 72 q 440 31 410 29 l 440 3 l 22 3 l 22 31 q 80 51 53 29 q 107 136 107 74 l 107 839 q 80 924 107 901 q 22 944 53 946 l 22 972 l 514 972 q 705 926 626 972 q 806 813 783 881 q 820 676 829 746 q 751 552 811 607 q 597 485 690 497 q 677 467 642 482 q 738 426 713 453 q 780 374 763 400 q 811 307 797 347 q 833 238 825 267 q 853 163 842 208 q 869 96 864 118 q 903 53 882 53 m 400 504 q 484 528 447 504 q 540 589 521 551 q 569 672 560 626 q 569 763 578 718 q 543 846 561 808 q 490 907 525 883 q 410 931 454 931 l 357 931 l 357 504 l 400 504 z "},"S":{"ha":785,"x_min":40,"x_max":757,"o":"m 222 815 q 251 748 222 781 q 328 686 281 715 q 432 627 375 657 q 546 560 489 597 q 650 483 603 524 q 727 384 697 442 q 757 261 757 326 q 733 149 757 199 q 672 70 710 100 q 582 21 633 40 q 479 -6 531 1 q 374 -14 428 -14 q 202 4 299 -14 q 47 53 106 22 l 82 296 l 115 296 q 199 93 135 163 q 367 24 264 24 q 492 70 444 24 q 539 183 539 117 q 518 257 539 222 q 462 317 497 292 q 381 367 426 342 q 290 416 336 393 q 198 469 243 439 q 118 533 153 500 q 62 615 83 567 q 40 722 40 664 q 62 837 40 788 q 117 915 83 886 q 199 960 150 943 q 295 983 249 978 q 399 989 342 989 q 690 925 568 989 l 660 714 l 625 714 q 526 887 594 822 q 364 951 458 951 q 261 912 300 951 q 222 815 222 872 z "},"T":{"ha":950,"x_min":10,"x_max":939,"o":"m 42 693 l 11 693 l 11 972 l 938 972 l 938 693 l 907 693 q 890 741 894 728 q 873 783 885 754 q 853 822 861 811 q 833 854 846 833 q 808 883 819 875 q 779 904 797 892 q 742 921 761 917 q 699 929 724 925 q 646 933 675 933 l 600 933 l 600 135 q 626 51 600 74 q 683 31 653 29 l 683 3 l 265 3 l 265 31 q 322 51 296 29 q 350 135 349 74 l 350 933 l 303 933 q 237 927 267 933 q 185 913 207 921 q 145 885 164 904 q 115 853 126 867 q 89 810 103 839 q 68 763 75 781 q 47 708 61 744 q 42 693 43 697 z "},"U":{"ha":919,"x_min":11,"x_max":907,"o":"m 693 972 l 906 972 l 906 944 q 851 927 876 946 q 822 854 826 908 l 822 363 q 790 198 821 272 q 713 79 760 124 q 613 10 667 35 q 508 -14 560 -14 q 348 9 421 -14 q 217 78 275 32 q 128 204 160 125 q 96 389 96 283 l 96 701 l 96 838 q 69 924 96 901 q 11 944 43 946 l 11 972 l 429 972 l 429 944 q 374 925 400 946 q 346 847 347 904 l 346 343 q 349 240 346 282 q 364 156 353 197 q 394 89 375 114 q 447 49 414 64 q 528 33 481 33 q 703 127 629 33 q 778 351 778 221 l 778 701 l 778 838 q 751 924 778 901 q 693 944 725 946 l 693 972 z "},"V":{"ha":1011,"x_min":-12,"x_max":1024,"o":"m 936 972 l 1024 972 l 1024 944 q 983 938 1004 944 q 931 908 961 932 q 882 843 901 883 l 529 -12 l 503 -12 l 131 838 l 131 838 l 129 842 q 80 907 110 882 q 28 938 50 932 q -12 944 7 944 l -12 972 l 429 972 l 429 944 q 401 938 411 946 q 387 907 390 931 q 406 838 383 883 l 629 333 l 835 838 q 835 839 835 838 l 842 857 q 852 913 857 893 q 837 940 847 933 q 811 944 826 946 l 811 972 l 936 972 z "},"W":{"ha":1475,"x_min":-12,"x_max":1488,"o":"m 1281 972 l 1486 972 l 1486 944 q 1448 938 1468 944 q 1400 908 1428 932 q 1353 843 1372 883 l 1036 -12 l 1010 -12 l 744 646 l 500 -12 l 474 -12 l 131 838 l 131 838 l 129 842 q 80 907 110 882 q 28 938 50 932 q -12 944 7 944 l -12 972 l 429 972 l 429 944 q 401 938 411 946 q 387 907 390 931 q 406 838 383 883 l 600 333 l 725 692 l 667 838 l 667 838 l 665 842 q 615 907 646 882 q 564 938 585 932 q 524 944 543 944 l 524 972 l 964 972 l 964 944 q 936 938 947 946 q 922 907 925 931 q 940 838 919 883 l 1135 333 l 1319 857 q 1322 926 1336 907 q 1281 944 1307 946 l 1281 972 z "},"X":{"ha":1114,"x_min":-4,"x_max":1124,"o":"m 950 133 q 1040 53 989 76 q 1124 29 1090 29 l 1124 1 l 1026 1 l 1025 3 l 747 3 l 747 1 l 735 1 l 735 1 l 650 1 l 650 29 q 675 37 667 29 q 677 69 683 44 q 643 136 671 94 l 467 399 l 260 135 q 243 29 194 31 l 243 1 l 146 1 l 147 3 l 114 3 l 114 1 l 17 1 l 17 29 q 105 54 50 29 q 204 136 160 79 l 206 136 l 443 435 l 172 838 l 171 838 q 81 920 132 896 q -4 944 29 944 l -4 972 l 468 972 l 468 944 q 444 937 451 944 q 442 904 436 929 q 475 838 449 879 l 475 838 l 619 624 l 781 838 q 799 944 847 943 l 799 972 l 1025 972 l 1025 944 q 937 919 992 944 q 836 838 882 894 l 836 838 l 643 588 l 950 133 z "},"Y":{"ha":985,"x_min":-14,"x_max":999,"o":"m 778 971 l 999 971 l 999 943 q 923 919 968 943 q 839 838 878 894 l 614 450 l 614 126 q 642 49 615 69 q 697 29 668 28 l 697 1 l 279 1 l 279 29 q 338 49 311 26 q 364 136 364 72 l 364 272 l 364 442 l 146 836 q 62 919 107 894 q -14 943 17 943 l -14 971 l 415 971 l 415 943 q 388 935 397 943 q 379 903 378 928 q 401 836 381 878 l 401 836 l 585 485 l 790 836 q 813 903 811 878 q 805 935 815 928 q 778 943 794 943 l 778 971 z "},"Z":{"ha":913,"x_min":10,"x_max":888,"o":"m 78 971 l 886 971 l 886 935 l 315 43 l 593 43 q 722 67 676 43 q 793 138 768 92 q 847 276 818 185 l 882 276 l 882 1 l 11 1 l 11 38 l 582 929 l 367 929 q 238 906 283 929 q 167 836 193 882 q 113 700 142 790 l 78 700 l 78 971 z "},"[":{"ha":324,"x_min":69,"x_max":381,"o":"m 69 1094 l 379 1094 l 379 1053 l 254 1053 l 254 -87 l 379 -87 l 379 -129 l 69 -129 l 69 1094 z "},"\\":{"ha":397,"x_min":28,"x_max":361,"o":"m 69 997 l 360 -6 l 318 -6 l 28 997 l 69 997 z "},"]":{"ha":324,"x_min":-57,"x_max":254,"o":"m -57 -129 l -57 -87 l 69 -87 l 69 1053 l -57 1053 l -57 1094 l 253 1094 l 253 -129 l -57 -129 z "},"^":{"ha":519,"x_min":38,"x_max":482,"o":"m 122 639 l 38 639 l 246 922 l 274 922 l 482 639 l 397 639 l 260 767 l 122 639 z "},"_":{"ha":860,"x_min":69,"x_max":790,"o":"m 789 -135 l 69 -135 l 69 -96 l 789 -96 l 789 -135 z "},"a":{"ha":821,"x_min":14,"x_max":808,"o":"m 726 126 q 742 51 726 71 q 808 31 757 31 l 808 6 l 544 6 q 490 22 506 6 q 474 75 474 38 l 474 82 q 146 15 279 -54 q 36 174 57 63 q 81 369 15 288 q 351 433 168 479 q 474 389 410 419 l 474 489 q 439 598 474 561 q 350 635 404 635 q 280 613 314 635 q 224 560 246 590 q 187 501 201 529 q 169 456 172 474 l 138 454 l 85 613 q 392 699 194 699 q 516 684 458 697 q 622 644 574 671 q 699 569 671 617 q 726 456 726 521 l 726 126 m 472 126 l 472 351 q 313 322 368 401 q 288 178 271 260 q 363 90 304 100 q 472 126 410 82 z "},"b":{"ha":888,"x_min":15,"x_max":867,"o":"m 353 1017 l 353 594 q 724 663 579 761 q 844 426 824 593 q 794 132 865 261 q 565 -3 714 -14 q 350 83 467 4 l 350 6 l 15 6 l 15 31 q 71 57 44 31 q 97 139 97 83 l 97 896 q 15 990 97 990 l 15 1015 l 326 1017 l 353 1017 m 353 126 q 543 147 472 43 q 594 374 601 232 q 518 571 586 517 q 353 553 451 624 l 353 126 z "},"c":{"ha":706,"x_min":11,"x_max":681,"o":"m 661 124 l 679 97 q 344 -11 539 -11 q 88 129 174 -11 q 40 407 13 253 q 190 644 68 565 q 381 696 271 696 q 664 640 553 696 l 647 458 l 621 458 q 440 660 564 660 q 317 538 361 660 q 294 256 269 406 q 421 56 322 92 q 504 50 458 42 q 661 124 574 64 z "},"d":{"ha":888,"x_min":18,"x_max":872,"o":"m 789 139 q 815 57 789 83 q 871 31 842 31 l 871 6 l 610 6 q 555 22 572 6 q 538 75 538 38 l 538 83 q 169 40 314 -69 q 43 285 67 117 q 86 575 19 450 q 313 696 163 715 q 535 594 413 683 l 535 896 q 453 990 535 990 l 453 1015 l 763 1017 l 789 1017 l 789 139 m 535 126 l 535 553 q 340 542 411 642 q 292 317 283 460 q 371 115 301 174 q 535 126 438 60 z "},"e":{"ha":742,"x_min":29,"x_max":708,"o":"m 689 121 l 707 94 q 572 14 639 39 q 404 -11 506 -11 q 251 13 319 -11 q 139 78 182 38 q 67 172 96 119 q 35 284 39 225 q 39 401 31 343 q 78 513 47 460 q 153 606 110 565 q 260 672 196 647 q 397 696 324 696 q 576 645 500 696 q 680 508 651 594 q 676 304 708 421 l 292 304 q 292 290 292 299 q 297 254 292 281 q 309 204 301 228 q 333 151 317 181 q 370 101 349 122 q 426 66 392 81 q 503 51 460 51 q 597 72 539 51 q 689 121 656 93 m 360 663 q 326 644 340 663 q 305 599 313 626 q 293 536 297 571 q 288 467 289 501 q 287 405 286 433 q 288 358 288 376 l 289 340 l 433 340 q 447 417 444 364 q 444 524 450 469 q 415 621 438 579 q 360 663 393 663 z "},"f":{"ha":531,"x_min":17,"x_max":644,"o":"m 389 1015 q 643 931 547 1007 l 592 772 l 560 775 q 547 827 557 796 q 518 895 536 858 q 469 958 500 932 q 401 983 438 983 q 340 965 360 983 q 322 913 321 946 q 331 848 324 881 q 349 777 339 815 q 360 719 360 739 l 360 679 l 526 679 l 526 643 l 360 643 l 360 140 q 443 31 360 31 l 443 6 l 25 6 l 25 31 q 107 139 107 31 l 107 643 l 17 643 l 17 679 l 107 679 l 107 789 q 127 904 107 858 q 188 974 147 950 q 275 1006 228 997 q 389 1015 322 1015 z "},"g":{"ha":918,"x_min":26,"x_max":918,"o":"m 892 650 q 844 673 876 661 q 771 693 813 685 q 686 697 729 701 q 615 668 643 692 q 767 542 726 635 q 744 361 808 444 q 421 243 656 243 q 251 261 322 243 q 223 258 238 260 q 188 251 208 256 q 156 237 168 246 q 143 215 143 228 q 182 172 143 186 q 283 154 221 157 q 422 150 346 151 q 574 140 497 149 q 713 111 650 131 q 814 46 775 92 q 853 -69 853 0 q 822 -177 853 -131 q 743 -251 790 -224 q 633 -297 696 -279 q 516 -320 571 -314 q 407 -326 461 -326 q 324 -323 365 -326 q 226 -308 282 -319 q 130 -279 171 -297 q 60 -226 89 -261 q 31 -144 31 -190 q 197 -14 31 -35 q 39 135 39 24 q 186 282 39 256 q 58 417 86 325 q 106 596 26 518 q 421 693 203 693 q 568 679 492 693 q 713 783 646 744 q 856 824 779 821 l 918 668 l 892 650 m 239 -22 q 221 -119 221 -60 q 269 -253 221 -217 q 417 -289 317 -289 q 478 -287 449 -289 q 549 -277 507 -285 q 622 -257 592 -269 q 675 -219 653 -244 q 697 -160 697 -194 q 661 -97 697 -122 q 566 -59 625 -71 q 449 -41 507 -47 q 327 -31 390 -35 q 239 -22 264 -26 m 421 278 q 492 317 464 278 q 527 412 521 356 q 526 524 533 468 q 491 619 519 581 q 421 658 463 658 q 348 619 378 658 q 310 524 318 581 q 309 412 303 468 q 346 317 315 356 q 421 278 376 278 z "},"h":{"ha":889,"x_min":13,"x_max":876,"o":"m 794 468 l 794 140 q 876 31 794 31 l 876 6 l 606 6 q 539 83 539 6 l 539 504 q 516 591 539 561 q 462 622 493 621 q 399 606 431 622 q 351 558 368 589 l 351 142 q 372 56 351 81 q 429 31 392 31 l 429 6 l 14 6 l 14 31 q 96 140 96 31 l 96 903 q 76 973 96 956 q 14 990 56 990 l 14 1015 l 326 1017 l 351 1017 l 351 593 q 567 696 426 696 q 735 635 675 696 q 794 468 794 575 z "},"i":{"ha":449,"x_min":18,"x_max":432,"o":"m 353 678 l 353 97 q 373 42 353 58 q 432 25 393 25 l 432 0 l 19 0 l 19 25 q 101 93 101 25 l 101 564 q 81 634 101 617 q 19 651 61 651 l 19 676 l 353 678 m 204 776 q 151 867 190 829 q 61 919 113 906 l 61 933 q 151 985 113 947 q 204 1076 190 1024 l 217 1076 q 269 985 231 1024 q 360 933 308 947 l 360 919 q 269 867 308 906 q 217 776 231 829 l 204 776 z "},"j":{"ha":411,"x_min":-124,"x_max":349,"o":"m 206 1076 q 258 985 219 1024 q 349 933 296 947 l 349 919 q 258 867 296 906 q 206 776 219 829 l 192 776 q 140 867 178 829 q 49 919 101 906 l 49 933 q 140 985 101 947 q 192 1076 178 1024 l 206 1076 m 15 651 l 15 676 l 349 678 l 349 -43 q 317 -201 349 -133 q 235 -301 286 -268 q 122 -344 183 -335 q -5 -331 60 -353 q -122 -260 -69 -308 l -104 -233 q 38 -277 -21 -301 q 97 -142 97 -253 l 97 564 q 76 634 97 617 q 15 651 56 651 z "},"k":{"ha":928,"x_min":13,"x_max":926,"o":"m 838 69 q 874 38 858 44 q 925 31 890 31 l 925 6 l 649 6 q 554 53 585 6 l 388 353 l 347 353 l 347 142 q 367 56 347 81 q 426 31 388 31 l 426 6 l 14 6 l 14 31 q 96 140 96 31 l 96 903 q 76 973 96 956 q 14 990 56 990 l 14 1015 l 347 1017 l 347 389 l 475 389 q 551 417 519 389 q 591 484 583 444 q 592 563 599 524 q 554 631 586 603 q 475 658 522 658 l 475 683 q 565 683 503 683 q 654 682 628 682 q 799 601 754 682 q 799 456 838 529 q 601 361 743 363 q 662 337 640 357 q 714 272 683 317 l 838 69 z "},"l":{"ha":442,"x_min":13,"x_max":426,"o":"m 347 142 q 367 56 347 81 q 426 31 388 31 l 426 6 l 14 6 l 14 31 q 96 140 96 31 l 96 903 q 76 973 96 956 q 14 990 56 990 l 14 1015 l 347 1017 l 347 142 z "},"m":{"ha":1343,"x_min":18,"x_max":1331,"o":"m 1247 469 l 1247 142 q 1329 32 1247 32 l 1329 7 l 1058 7 q 993 85 993 7 l 993 506 q 971 597 993 567 q 917 624 949 626 q 851 600 885 621 q 790 544 817 579 q 800 468 800 510 l 800 140 q 882 31 800 31 l 882 6 l 611 6 q 544 83 544 6 l 544 504 q 522 591 544 561 q 467 622 499 621 q 405 606 436 622 q 357 558 374 589 l 357 142 q 377 56 357 81 q 435 31 397 31 l 435 6 l 19 6 l 19 31 q 101 140 101 31 l 101 569 q 81 639 101 622 q 19 656 61 656 l 19 681 l 332 683 l 357 683 l 357 593 q 572 696 432 696 q 707 662 653 696 q 785 565 761 628 q 885 666 835 636 q 1019 696 936 696 q 1188 636 1128 696 q 1247 469 1247 576 z "},"n":{"ha":894,"x_min":18,"x_max":882,"o":"m 800 140 q 882 31 800 31 l 882 6 l 611 6 q 544 83 544 6 l 544 504 q 522 591 544 561 q 467 622 499 621 q 405 606 436 622 q 357 558 374 589 l 357 142 q 377 56 357 81 q 435 31 397 31 l 435 6 l 19 6 l 19 31 q 101 140 101 31 l 101 569 q 81 639 101 622 q 19 656 61 656 l 19 681 l 332 683 l 357 683 l 357 593 q 572 696 432 696 q 740 635 681 696 q 800 468 800 575 l 800 140 z "},"o":{"ha":771,"x_min":31,"x_max":740,"o":"m 385 696 q 524 672 461 696 q 628 606 588 647 q 698 513 669 565 q 733 401 726 460 q 733 284 739 343 q 698 172 726 225 q 628 78 669 119 q 524 13 588 38 q 385 -11 461 -11 q 246 13 310 -11 q 142 78 182 38 q 72 172 101 119 q 38 284 43 225 q 38 401 32 343 q 73 513 44 460 q 142 606 101 565 q 247 672 183 647 q 385 696 310 696 m 489 50 q 494 300 542 103 q 376 590 451 483 q 281 636 319 674 q 271 385 225 583 q 388 97 313 204 q 489 50 449 10 z "},"p":{"ha":888,"x_min":15,"x_max":867,"o":"m 353 593 q 724 661 579 760 q 844 425 824 592 q 794 131 865 260 q 565 -4 714 -15 q 350 82 467 3 l 350 -175 q 376 -256 350 -231 q 431 -282 401 -282 l 431 -307 l 15 -307 l 15 -282 q 71 -256 44 -282 q 97 -175 97 -231 l 97 563 q 15 656 97 656 l 15 681 l 353 683 l 353 593 m 353 125 q 543 146 472 42 q 594 372 601 231 q 518 569 586 515 q 353 551 451 622 l 353 125 z "},"q":{"ha":886,"x_min":18,"x_max":872,"o":"m 790 -175 q 817 -256 790 -231 q 872 -282 843 -282 l 872 -307 l 457 -307 l 457 -282 q 509 -258 483 -282 q 538 -185 535 -235 l 538 82 q 169 39 314 -71 q 43 283 67 115 q 86 574 19 449 q 313 694 163 714 q 535 593 413 682 l 535 683 l 871 681 l 871 656 q 789 563 789 656 l 789 -76 l 790 -76 l 790 -175 m 535 125 l 535 551 q 340 540 411 640 q 292 315 283 458 q 371 114 301 172 q 535 125 438 58 z "},"r":{"ha":718,"x_min":18,"x_max":701,"o":"m 353 583 q 456 674 393 647 q 586 684 519 701 q 700 606 653 667 l 647 372 l 625 374 q 554 477 601 431 q 453 539 507 524 q 353 519 400 554 l 353 97 q 373 42 353 58 q 432 25 393 25 l 432 0 l 19 0 l 19 25 q 101 93 101 25 l 101 564 q 81 634 101 617 q 19 651 61 651 l 19 676 l 353 678 l 353 583 z "},"s":{"ha":658,"x_min":43,"x_max":625,"o":"m 203 596 q 234 542 203 568 q 313 494 265 515 q 414 442 360 472 q 515 381 468 413 q 594 301 563 350 q 625 196 625 253 q 599 91 625 135 q 530 24 574 47 q 438 -8 486 1 q 335 -18 390 -18 q 49 42 169 -18 l 67 231 l 88 231 q 165 68 110 121 q 319 15 219 15 q 406 45 375 15 q 436 114 436 75 q 407 179 436 149 q 334 230 378 210 q 240 277 290 250 q 145 332 189 304 q 72 405 101 360 q 43 507 43 450 q 326 697 43 697 q 462 681 378 697 q 581 643 546 665 l 565 476 l 543 476 q 460 619 510 572 q 324 667 410 667 q 203 596 203 667 z "},"t":{"ha":583,"x_min":10,"x_max":574,"o":"m 551 113 l 574 86 q 471 25 532 50 q 347 -5 410 0 q 228 5 283 -10 q 137 67 172 19 q 101 189 101 115 l 101 647 l 11 647 l 11 683 q 74 688 56 683 q 117 714 92 693 l 363 932 l 375 932 l 375 683 l 554 683 l 554 647 l 375 647 l 375 221 q 385 153 375 182 q 414 104 394 124 q 469 86 433 85 q 551 113 504 88 z "},"u":{"ha":890,"x_min":13,"x_max":875,"o":"m 793 685 l 793 119 q 813 50 793 67 q 875 33 833 33 l 875 8 l 538 6 l 538 96 q 322 -7 463 -7 q 154 53 214 -7 q 94 221 94 114 l 94 549 q 13 658 94 658 l 13 683 l 283 683 q 350 606 350 683 l 350 185 q 373 98 350 128 q 427 67 396 68 q 490 83 458 67 q 538 131 521 100 l 538 549 q 517 633 538 608 q 460 658 497 658 l 460 683 l 793 685 z "},"v":{"ha":710,"x_min":-1,"x_max":711,"o":"m 558 683 l 710 683 l 710 663 q 656 649 672 663 q 618 579 639 635 l 399 7 l 367 7 l 106 576 q 57 646 76 631 q -1 663 38 661 l -1 683 l 393 683 l 393 663 q 360 656 374 663 q 339 628 346 649 q 350 572 332 608 l 475 283 l 585 582 q 599 626 596 610 q 595 651 601 643 q 582 660 589 658 q 558 663 575 661 l 558 683 z "},"w":{"ha":1146,"x_min":-1,"x_max":1147,"o":"m 988 683 l 1146 683 l 1146 663 q 1088 649 1106 663 q 1050 579 1071 635 l 831 7 l 794 7 l 581 475 l 403 7 l 367 7 l 106 576 q 57 646 76 631 q -1 663 38 661 l -1 683 l 393 683 l 393 663 q 360 656 374 663 q 339 628 346 649 q 350 572 332 608 l 475 283 l 563 522 l 538 576 q 489 646 508 631 q 431 663 469 661 l 431 683 l 822 683 l 822 663 q 788 656 801 663 q 767 628 775 649 q 778 572 760 608 l 904 283 l 1014 582 q 1026 626 1024 610 q 1024 651 1029 643 q 1010 660 1018 658 q 988 663 1003 661 l 988 683 z "},"x":{"ha":853,"x_min":4,"x_max":849,"o":"m 731 106 q 790 41 768 56 q 849 26 811 26 l 849 6 l 424 6 l 424 26 q 458 33 443 26 q 478 60 472 40 q 460 113 485 79 l 350 264 l 193 86 q 172 52 172 67 q 182 32 171 38 q 206 26 193 26 l 206 6 l 39 6 l 39 26 q 92 38 72 28 q 136 71 113 47 l 332 289 l 121 583 q 63 647 85 633 q 4 661 42 661 l 4 682 l 429 682 l 429 661 q 395 654 410 661 q 374 628 381 647 q 393 576 368 610 l 503 425 l 660 603 q 681 636 681 622 q 670 656 681 650 q 647 661 660 661 l 647 682 l 814 682 l 814 661 q 760 651 781 661 q 717 618 740 642 l 521 400 l 731 106 z "},"y":{"ha":793,"x_min":-1,"x_max":794,"o":"m 635 658 l 635 679 l 793 679 l 793 658 q 738 644 756 658 q 696 574 719 629 l 450 6 q 408 -87 425 -50 q 361 -175 390 -125 q 305 -254 332 -225 q 240 -305 278 -283 q 164 -326 203 -326 l 89 -115 q 258 -90 172 -115 q 413 -17 343 -64 l 101 579 q 52 644 71 631 q -1 658 33 658 l -1 679 l 433 679 l 433 658 q 399 651 413 658 q 379 622 385 643 q 393 563 374 600 l 533 279 l 665 585 q 672 641 679 624 q 635 658 664 658 z "},"z":{"ha":632,"x_min":22,"x_max":601,"o":"m 578 193 l 600 193 l 600 6 l 24 6 l 24 33 l 350 644 l 226 644 q 125 616 154 644 q 72 497 96 588 l 50 497 l 50 679 l 599 679 l 599 651 l 272 40 l 425 40 q 526 71 497 40 q 578 193 556 101 z "},"{":{"ha":404,"x_min":54,"x_max":426,"o":"m 117 510 q 147 525 139 513 q 156 558 156 538 q 151 600 156 578 q 144 639 149 619 q 136 683 140 661 q 115 803 122 758 q 110 885 110 846 q 161 1030 110 975 q 333 1090 213 1085 l 425 1094 l 425 1056 l 338 1050 q 290 1035 303 1049 q 278 996 278 1021 q 297 876 278 974 q 326 726 315 792 q 338 604 338 661 q 312 520 338 550 q 208 482 286 490 q 311 444 285 474 q 338 361 338 415 q 326 239 338 304 q 297 89 315 174 q 278 -31 278 -10 q 290 -69 278 -56 q 338 -85 303 -83 l 425 -90 l 425 -129 l 333 -125 q 161 -65 213 -119 q 110 81 110 -11 q 116 163 110 119 q 136 282 122 206 q 144 326 140 306 q 151 365 149 346 q 156 407 156 389 q 147 440 156 428 q 117 454 139 451 l 54 464 l 54 500 l 117 510 z "},"|":{"ha":181,"x_min":69,"x_max":111,"o":"m 69 1094 l 111 1094 l 111 -129 l 69 -129 l 69 1094 z "},"}":{"ha":404,"x_min":-22,"x_max":350,"o":"m 286 454 q 256 440 264 451 q 247 407 247 428 q 251 365 247 389 q 258 326 254 347 q 267 282 263 306 q 288 163 281 206 q 293 81 293 119 q 242 -65 293 -10 q 69 -125 192 -119 l -22 -129 l -22 -90 l 65 -85 q 113 -69 100 -83 q 126 -31 126 -56 q 106 89 126 -10 q 76 239 88 174 q 65 361 65 304 q 92 444 65 415 q 196 482 118 474 q 92 520 118 490 q 65 604 65 550 q 76 726 65 661 q 106 876 88 792 q 126 996 126 974 q 113 1035 126 1021 q 65 1050 100 1049 l -22 1056 l -22 1094 l 69 1090 q 242 1030 192 1085 q 293 885 293 975 q 288 803 293 846 q 267 683 281 760 q 258 639 263 660 q 251 600 254 618 q 247 558 247 578 q 256 525 247 538 q 286 510 264 513 l 349 500 l 349 464 l 286 454 z "},"~":{"ha":663,"x_min":40,"x_max":621,"o":"m 500 468 q 553 494 532 468 q 597 568 575 519 l 621 556 q 559 430 606 485 q 446 375 513 375 q 389 388 421 375 q 310 426 357 401 q 223 466 256 453 q 163 479 190 479 q 109 454 131 479 q 65 381 88 429 l 42 393 q 103 518 57 463 q 217 574 150 574 q 274 560 242 574 q 351 522 306 547 q 440 481 407 494 q 500 468 472 468 z "}," ":{"ha":524,"x_min":0,"x_max":0,"o":""},"¡":{"ha":339,"x_min":39,"x_max":300,"o":"m 192 382 l 299 -247 q 250 -283 283 -271 q 169 -296 217 -296 q 88 -283 122 -296 q 39 -247 54 -271 l 147 382 l 192 382 m 87 665 q 104 682 87 665 q 169 699 121 699 q 251 665 218 699 q 285 585 285 632 q 251 504 285 538 q 169 471 218 471 q 87 504 121 471 q 53 585 53 538 q 87 665 53 632 z "},"¢":{"ha":854,"x_min":53,"x_max":803,"o":"m 467 -6 q 163 85 272 -6 q 54 357 54 175 q 167 615 54 528 q 503 701 281 701 l 529 701 l 529 824 l 571 824 l 571 699 q 786 646 696 690 l 769 464 l 744 464 q 678 602 717 554 q 571 661 640 650 l 571 56 q 783 129 683 60 l 801 103 q 571 3 699 22 l 571 -126 l 529 -126 l 529 -3 q 467 -6 490 -6 m 342 386 q 381 144 342 224 q 529 57 421 65 l 529 665 l 528 665 q 384 594 426 665 q 342 386 342 524 z "},"£":{"ha":910,"x_min":50,"x_max":854,"o":"m 136 560 q 96 726 96 653 q 213 931 96 864 q 522 997 329 997 q 694 985 615 997 q 821 947 772 972 l 801 738 l 769 738 q 723 864 747 818 q 651 935 699 910 q 525 961 604 961 q 383 920 426 961 q 340 801 340 879 q 356 701 340 749 q 403 590 372 654 l 417 560 l 649 560 l 649 521 l 432 521 q 463 386 463 449 q 431 290 463 336 q 347 206 400 243 l 786 206 q 807 212 801 206 q 817 239 813 218 l 825 274 l 853 274 l 853 133 q 821 41 853 71 q 735 11 789 11 l 85 11 l 78 43 q 230 122 176 67 q 283 246 283 176 q 266 314 283 275 q 213 417 249 353 q 154 521 169 489 l 50 521 l 50 560 l 136 560 z "},"¥":{"ha":1117,"x_min":68,"x_max":1047,"o":"m 396 440 l 164 914 q 146 938 154 931 q 124 947 138 946 l 69 953 l 69 981 l 519 981 l 519 953 l 464 947 q 444 931 444 946 q 450 913 444 922 l 667 450 l 907 915 q 910 925 910 924 q 901 941 910 935 q 882 949 893 947 l 817 954 l 817 981 l 1047 981 l 1047 953 l 1004 949 q 974 940 982 947 q 954 914 965 932 l 708 440 l 889 440 l 889 403 l 696 403 l 696 297 l 889 297 l 889 258 l 696 258 l 696 81 q 702 60 696 65 q 729 50 708 54 l 779 39 l 779 11 l 328 11 l 328 39 l 379 50 q 406 60 400 54 q 413 81 413 65 l 413 258 l 219 258 l 219 297 l 413 297 l 413 403 l 219 403 l 219 440 l 396 440 z "},"§":{"ha":769,"x_min":58,"x_max":708,"o":"m 439 1031 q 328 1008 365 1031 q 292 935 292 985 q 307 877 292 900 q 360 833 322 854 q 468 786 397 811 q 608 722 557 754 q 684 647 660 690 q 708 540 708 604 q 648 412 708 463 q 482 321 588 361 q 611 254 565 285 q 678 183 657 224 q 700 79 700 142 q 609 -72 700 -17 q 353 -126 518 -126 q 207 -111 289 -126 q 81 -76 125 -96 l 100 111 l 121 111 q 344 -93 171 -93 q 492 6 492 -93 q 452 88 492 56 q 307 158 413 121 q 165 223 218 192 q 86 298 113 254 q 60 407 60 342 q 123 531 60 482 q 297 621 186 581 q 170 686 215 657 q 105 754 125 715 q 85 851 85 793 q 175 1009 85 954 q 431 1064 265 1064 q 560 1054 493 1064 q 676 1031 626 1044 l 657 857 l 636 857 q 569 990 615 950 q 439 1031 524 1031 m 236 489 q 253 437 236 457 q 305 399 269 417 q 414 350 340 381 q 447 336 425 344 q 532 451 532 385 q 517 505 532 483 q 467 546 503 526 q 361 594 432 565 l 329 607 q 261 556 286 583 q 236 489 236 528 z "},"©":{"ha":1111,"x_min":54,"x_max":1056,"o":"m 121 245 q 88 302 121 245 q 56 497 56 360 q 121 748 56 633 q 300 929 186 863 q 556 996 414 996 q 811 929 697 996 q 990 748 925 863 q 1056 497 1056 633 q 990 245 1056 360 q 811 63 925 131 q 556 -4 697 -4 q 300 63 414 -4 q 121 245 186 131 m 152 729 q 122 676 152 729 q 92 497 92 622 q 152 264 92 371 q 319 94 213 157 q 556 32 425 32 q 792 94 686 32 q 959 264 899 157 q 1019 497 1019 371 q 959 729 1019 622 q 792 898 899 836 q 556 960 686 960 q 319 898 425 960 q 152 729 213 836 m 794 731 l 783 586 l 764 586 q 712 709 743 669 q 615 749 681 749 q 515 692 543 749 q 486 522 486 635 q 498 375 486 431 q 542 290 510 319 q 636 261 575 261 q 716 277 682 261 q 790 324 750 293 l 804 303 q 708 236 761 260 q 575 213 654 213 q 353 285 435 213 q 271 499 271 357 q 354 704 271 633 q 596 775 438 775 q 794 731 718 775 z "},"ª":{"ha":676,"x_min":49,"x_max":629,"o":"m 424 513 q 386 524 397 513 q 375 561 375 535 l 375 565 q 196 503 310 503 q 91 532 132 503 q 50 619 50 561 q 129 740 50 706 q 375 778 208 774 l 375 849 q 356 922 375 900 q 283 943 336 943 q 203 931 242 943 q 125 894 165 918 l 111 917 q 361 989 208 989 q 572 825 572 989 l 572 564 q 577 549 572 553 q 596 542 582 546 l 629 535 l 629 513 l 424 513 m 301 567 q 375 601 338 567 l 375 747 q 293 731 321 743 q 256 697 265 719 q 247 633 247 674 q 260 582 247 597 q 301 567 272 567 z "},"«":{"ha":607,"x_min":44,"x_max":560,"o":"m 44 417 l 279 650 l 301 631 q 203 395 203 513 q 301 160 203 278 l 279 140 l 44 375 l 44 417 m 301 417 l 538 650 l 560 631 q 460 395 460 513 q 560 160 460 278 l 538 140 l 301 375 l 301 417 z "},"­":{"ha":0,"x_min":0,"x_max":0,"o":""},"®":{"ha":815,"x_min":54,"x_max":761,"o":"m 100 464 q 77 504 100 464 q 54 642 54 544 q 100 819 54 739 q 226 947 146 900 q 407 994 307 994 q 588 947 507 994 q 715 819 669 900 q 760 642 760 739 q 715 464 760 544 q 588 336 669 383 q 407 289 507 289 q 226 336 307 289 q 100 464 146 383 m 123 806 q 102 768 123 806 q 81 642 81 731 q 123 478 81 553 q 240 359 165 403 q 407 315 314 315 q 575 359 500 315 q 692 478 650 403 q 735 642 735 553 q 692 806 735 731 q 575 925 650 882 q 407 968 500 968 q 240 925 314 968 q 123 806 165 882 m 239 821 l 219 825 l 219 839 l 379 839 q 533 817 488 839 q 578 739 578 794 q 551 676 578 699 q 468 644 525 653 q 540 624 517 642 q 571 561 563 606 l 576 528 q 581 505 578 519 q 587 487 583 490 q 597 483 590 483 q 622 501 614 483 l 636 490 q 558 456 617 456 q 485 474 507 456 q 453 544 463 493 l 446 585 q 431 628 439 618 q 397 640 424 639 l 372 640 l 372 493 q 385 479 372 481 l 404 475 l 404 461 l 219 461 l 219 475 l 239 479 q 251 493 251 481 l 251 807 q 239 821 251 819 m 372 819 l 372 660 l 383 660 q 444 677 429 660 q 460 739 460 694 q 444 802 460 785 q 383 819 429 819 l 372 819 z "},"°":{"ha":483,"x_min":50,"x_max":433,"o":"m 242 994 q 380 943 328 994 q 432 807 432 892 q 380 671 432 724 q 242 618 328 618 q 103 671 156 618 q 50 807 50 724 q 103 943 50 892 q 242 994 156 994 m 131 697 q 151 675 131 697 q 241 654 172 654 q 351 697 310 654 q 393 807 393 739 q 351 917 393 875 q 241 958 310 958 q 131 917 172 958 q 89 807 89 875 q 131 697 89 739 z "},"²":{"ha":461,"x_min":46,"x_max":407,"o":"m 389 626 l 393 650 l 406 650 l 406 519 l 51 519 l 46 532 q 199 681 138 597 q 261 863 261 765 q 206 954 261 954 q 139 905 169 954 q 99 806 108 856 l 56 907 q 244 979 140 979 q 349 946 304 979 q 393 851 393 913 q 374 772 393 810 q 321 704 356 735 q 256 653 286 674 q 185 611 225 633 l 375 611 q 384 614 382 611 q 389 626 386 617 z "},"³":{"ha":447,"x_min":53,"x_max":411,"o":"m 279 756 q 388 679 364 743 q 357 565 410 617 q 199 514 303 514 q 53 540 101 514 l 61 644 l 76 644 q 116 561 93 590 q 188 532 139 532 q 243 554 221 532 q 270 608 265 576 q 269 670 275 639 q 238 724 263 701 q 179 746 214 746 l 153 746 l 153 764 l 179 764 q 251 812 232 764 q 251 907 269 860 q 194 954 232 954 q 146 925 171 954 q 107 867 121 896 q 81 806 93 838 l 53 919 q 225 979 128 979 q 327 950 289 979 q 371 883 365 921 q 352 808 376 846 q 279 756 328 771 z "},"·":{"ha":325,"x_min":46,"x_max":279,"o":"m 244 317 q 228 300 244 317 q 163 283 211 283 q 80 317 114 283 q 46 397 46 350 q 80 477 46 444 q 163 510 114 510 q 244 476 211 510 q 278 397 278 443 q 244 317 278 350 z "},"¹":{"ha":304,"x_min":49,"x_max":254,"o":"m 213 589 q 224 548 213 563 q 253 533 236 533 l 253 521 l 50 521 l 50 533 q 83 547 69 533 q 97 590 97 561 l 97 911 l 50 911 l 50 925 q 201 971 128 935 l 213 964 l 213 589 z "},"º":{"ha":707,"x_min":51,"x_max":654,"o":"m 128 931 q 166 960 128 931 q 353 989 204 989 q 578 931 503 989 q 654 746 654 874 q 578 560 654 618 q 353 501 503 501 q 128 560 204 501 q 53 746 53 618 q 128 931 53 874 m 294 553 q 304 542 294 553 q 353 531 314 531 q 412 553 392 531 q 438 619 432 575 q 444 746 444 664 q 438 872 444 828 q 412 938 432 915 q 353 960 392 960 q 294 938 314 960 q 269 872 275 915 q 263 746 263 828 q 269 619 263 664 q 294 553 275 575 z "},"»":{"ha":607,"x_min":47,"x_max":563,"o":"m 304 375 l 69 140 l 47 160 q 147 395 147 278 q 47 631 147 513 l 69 650 l 304 417 l 304 375 m 563 375 l 326 140 l 304 160 q 404 395 404 278 q 304 631 404 513 l 326 650 l 563 417 l 563 375 z "},"¿":{"ha":589,"x_min":68,"x_max":754,"o":"m 332 -68 q 490 -229 332 -229 q 620 -210 567 -229 q 738 -146 674 -190 l 754 -172 q 582 -266 669 -233 q 363 -299 494 -299 q 145 -244 221 -299 q 69 -81 69 -189 q 159 112 69 47 q 388 200 249 176 l 406 382 l 444 382 l 460 200 q 332 -68 332 99 m 342 665 q 359 682 342 665 q 425 699 376 699 q 508 665 474 699 q 542 585 542 632 q 508 504 542 538 q 425 471 474 471 q 342 504 376 471 q 308 585 308 538 q 342 665 308 632 z "},"À":{"ha":1011,"x_min":-14,"x_max":1024,"o":"m 506 999 l 472 999 l 147 1281 q 238 1293 179 1293 q 349 1281 297 1293 l 506 999 m 882 139 q 931 72 900 97 q 983 41 961 47 q 1024 35 1004 35 l 1024 8 l 582 8 l 582 35 q 610 42 600 35 q 624 74 621 50 q 606 142 628 97 l 606 143 l 564 238 l 215 238 l 176 142 q 176 142 176 142 l 169 124 q 159 67 154 86 q 174 41 164 47 q 200 35 185 35 l 200 8 l -12 8 l -12 35 q 28 41 7 35 q 79 72 49 47 q 128 138 110 97 l 482 971 l 508 971 l 879 143 l 879 143 l 882 139 m 231 274 l 547 274 l 382 646 l 231 274 z "},"Á":{"ha":1011,"x_min":-12,"x_max":1024,"o":"m 840 1281 l 515 999 l 482 999 l 638 1281 q 749 1293 689 1293 q 840 1281 808 1293 m 882 139 q 931 72 900 97 q 983 41 961 47 q 1024 35 1004 35 l 1024 8 l 582 8 l 582 35 q 610 42 600 35 q 624 74 621 50 q 606 142 628 97 l 606 143 l 564 238 l 215 238 l 176 142 q 176 142 176 142 l 169 124 q 159 67 154 86 q 174 41 164 47 q 200 35 185 35 l 200 8 l -12 8 l -12 35 q 28 41 7 35 q 79 72 49 47 q 128 138 110 97 l 482 971 l 508 971 l 879 143 l 881 143 l 882 139 m 231 274 l 547 274 l 382 646 l 231 274 z "},"Â":{"ha":1011,"x_min":-12,"x_max":1024,"o":"m 506 1118 l 368 1038 l 283 1038 l 492 1253 l 519 1253 l 728 1038 l 643 1038 l 506 1118 m 882 139 q 931 72 900 97 q 983 41 961 47 q 1024 35 1004 35 l 1024 8 l 582 8 l 582 35 q 610 42 600 35 q 624 74 621 50 q 606 142 628 97 l 606 143 l 564 238 l 215 238 l 176 142 q 176 142 176 142 l 169 124 q 159 67 154 86 q 174 41 164 47 q 200 35 185 35 l 200 8 l -12 8 l -12 35 q 28 41 7 35 q 79 72 49 47 q 128 138 110 97 l 482 971 l 508 971 l 879 143 l 881 143 l 881 142 l 882 139 m 231 274 l 547 274 l 382 646 l 231 274 z "},"Ã":{"ha":1011,"x_min":-14,"x_max":1024,"o":"m 383 1119 q 368 1076 375 1103 l 347 1076 q 381 1196 356 1143 q 442 1251 406 1251 q 473 1238 456 1251 q 517 1200 490 1225 q 565 1160 547 1172 q 597 1147 582 1147 q 626 1172 615 1147 q 643 1218 635 1189 l 664 1218 q 631 1094 656 1149 q 568 1039 604 1039 q 537 1052 554 1039 q 494 1090 519 1065 q 446 1131 464 1118 q 413 1144 428 1144 q 383 1119 394 1144 m 882 139 q 931 72 900 97 q 983 41 961 47 q 1024 35 1004 35 l 1024 8 l 582 8 l 582 35 q 610 42 600 35 q 624 74 621 50 q 606 142 628 97 l 606 143 l 564 238 l 215 238 l 176 142 q 176 142 176 142 l 169 124 q 159 67 154 86 q 174 41 164 47 q 200 35 185 35 l 200 8 l -12 8 l -12 35 q 28 41 7 35 q 79 72 49 47 q 128 138 110 97 l 482 971 l 508 971 l 879 143 l 879 143 l 882 139 m 231 274 l 547 274 l 382 646 l 231 274 z "},"Ä":{"ha":1011,"x_min":-14,"x_max":1024,"o":"m 460 1101 q 451 1092 460 1101 q 417 1083 442 1083 q 374 1101 392 1083 q 356 1145 356 1119 q 374 1189 356 1171 q 417 1207 392 1207 q 460 1189 442 1207 q 478 1145 478 1171 q 460 1101 478 1119 m 614 1101 q 605 1092 614 1101 q 571 1083 596 1083 q 528 1101 546 1083 q 511 1145 511 1119 q 528 1189 511 1171 q 571 1207 546 1207 q 614 1189 596 1207 q 632 1145 632 1171 q 614 1101 632 1119 m 882 139 q 931 72 900 97 q 983 41 961 47 q 1024 35 1004 35 l 1024 8 l 582 8 l 582 35 q 610 42 600 35 q 624 74 621 50 q 606 142 628 97 l 606 143 l 564 238 l 215 238 l 176 142 q 176 142 176 142 l 169 124 q 159 67 154 86 q 174 41 164 47 q 200 35 185 35 l 200 8 l -12 8 l -12 35 q 28 41 7 35 q 79 72 49 47 q 128 138 110 97 l 482 971 l 508 971 l 879 143 l 879 142 l 882 139 m 231 274 l 547 274 l 382 646 l 231 274 z "},"Å":{"ha":1011,"x_min":-12,"x_max":1024,"o":"m 882 139 q 931 72 900 97 q 983 41 961 47 q 1024 35 1004 35 l 1024 8 l 582 8 l 582 35 q 610 42 600 35 q 624 74 621 50 q 606 142 628 97 l 606 143 l 564 238 l 215 238 l 176 142 q 176 142 176 142 l 169 124 q 159 67 154 86 q 174 41 164 47 q 200 35 185 35 l 200 8 l -12 8 l -12 35 q 28 41 7 35 q 79 72 49 47 q 128 138 110 97 l 474 950 q 390 993 424 956 q 357 1081 357 1031 q 395 1172 357 1133 q 488 1210 433 1210 q 580 1172 542 1210 q 618 1081 618 1133 q 590 998 618 1033 q 517 953 561 963 l 879 143 l 881 143 l 882 139 m 426 1141 q 414 1128 426 1141 q 401 1080 401 1115 q 426 1019 401 1044 q 488 993 451 993 q 549 1019 524 993 q 575 1080 575 1044 q 549 1141 575 1115 q 488 1167 524 1167 q 426 1141 451 1167 m 231 274 l 547 274 l 382 646 l 231 274 z "},"Æ":{"ha":1381,"x_min":-12,"x_max":1343,"o":"m 1307 283 l 1342 283 l 1342 8 l 578 8 l 578 35 q 582 35 581 35 q 586 35 583 35 q 597 36 592 36 q 606 142 649 47 l 606 143 l 564 238 l 215 238 l 176 142 q 176 142 176 142 l 169 124 q 159 67 154 86 q 174 41 164 47 q 200 35 185 35 l 200 8 l -12 8 l -12 35 q 28 41 7 35 q 79 72 49 47 q 128 138 110 97 l 482 971 l 508 971 l 663 626 l 663 843 q 636 928 663 906 q 578 950 610 951 l 578 976 l 1322 976 l 1322 707 l 1289 707 q 1258 792 1271 761 q 1226 853 1246 822 q 1183 900 1207 885 q 1122 926 1158 915 q 1033 936 1085 936 l 919 936 l 919 524 l 1082 524 l 1082 483 l 919 483 l 919 82 q 965 49 940 61 l 1047 49 q 1124 56 1090 49 q 1182 78 1157 63 q 1224 112 1207 94 q 1258 160 1242 129 q 1283 215 1274 190 q 1307 283 1293 240 m 231 274 l 547 274 l 382 646 l 231 274 z "},"Ç":{"ha":925,"x_min":29,"x_max":910,"o":"m 658 -46 q 681 -101 693 -74 q 624 -144 667 -133 q 518 -156 581 -156 q 424 -142 453 -156 l 424 -125 q 501 -140 460 -140 q 551 -134 532 -140 q 574 -110 569 -128 q 567 -74 579 -87 q 522 -60 551 -60 q 456 -71 474 -60 l 521 -8 q 345 23 426 -7 q 207 101 264 53 q 109 214 150 150 q 49 350 68 278 q 29 498 29 422 q 49 645 29 574 q 110 780 68 717 q 212 891 153 843 q 356 966 271 939 q 542 993 442 993 q 722 978 626 993 q 881 932 818 963 l 861 693 l 822 693 q 782 792 804 749 q 726 873 760 835 q 647 932 693 911 q 543 953 600 953 q 336 797 408 954 q 292 444 265 644 q 440 128 319 232 q 626 60 519 60 q 881 154 763 60 l 908 124 q 752 29 843 63 q 564 -8 661 -4 l 553 -19 q 658 -46 622 -19 z "},"È":{"ha":822,"x_min":19,"x_max":785,"o":"m 458 999 l 425 999 l 100 1281 q 191 1293 132 1293 q 301 1281 250 1293 l 458 999 m 749 283 l 785 283 l 785 8 l 21 8 l 21 35 q 79 56 53 33 q 106 142 106 79 l 106 843 q 79 928 106 906 q 21 950 53 951 l 21 976 l 765 976 l 765 707 l 731 707 q 701 792 714 761 q 669 853 689 822 q 624 900 649 885 q 563 926 600 915 q 476 936 526 936 l 363 936 l 363 524 l 524 524 l 524 483 l 363 483 l 363 49 l 490 49 q 567 56 533 49 q 625 78 600 63 q 667 112 650 94 q 700 160 685 129 q 725 215 715 190 q 749 283 735 240 z "},"É":{"ha":822,"x_min":19,"x_max":785,"o":"m 761 1281 l 436 999 l 403 999 l 558 1281 q 669 1293 610 1293 q 761 1281 729 1293 m 749 283 l 785 283 l 785 8 l 21 8 l 21 35 q 79 56 53 33 q 106 142 106 79 l 106 843 q 79 928 106 906 q 21 950 53 951 l 21 976 l 765 976 l 765 707 l 731 707 q 701 792 714 761 q 669 853 689 822 q 624 900 649 885 q 563 926 600 915 q 476 936 526 936 l 363 936 l 363 524 l 524 524 l 524 483 l 363 483 l 363 49 l 490 49 q 567 56 533 49 q 625 78 600 63 q 667 112 650 94 q 700 160 685 129 q 725 215 715 190 q 749 283 735 240 z "},"Ê":{"ha":822,"x_min":19,"x_max":785,"o":"m 403 1118 l 265 1038 l 181 1038 l 389 1253 l 417 1253 l 625 1038 l 540 1038 l 403 1118 m 749 283 l 785 283 l 785 8 l 21 8 l 21 35 q 79 56 53 33 q 106 142 106 79 l 106 843 q 79 928 106 906 q 21 949 53 951 l 21 976 l 765 976 l 765 707 l 731 707 q 701 792 714 761 q 669 853 689 822 q 624 900 649 885 q 563 926 600 915 q 476 936 526 936 l 363 936 l 363 524 l 524 524 l 524 483 l 363 483 l 363 49 l 490 49 q 567 56 533 49 q 625 78 600 63 q 667 112 650 94 q 700 160 685 129 q 725 215 715 190 q 749 283 735 240 z "},"Ë":{"ha":822,"x_min":19,"x_max":785,"o":"m 523 1101 q 514 1092 523 1101 q 481 1083 506 1083 q 438 1101 456 1083 q 419 1145 419 1119 q 438 1189 419 1171 q 481 1207 456 1207 q 523 1189 506 1207 q 540 1145 540 1171 q 523 1101 540 1119 m 368 1101 q 359 1092 368 1101 q 325 1083 350 1083 q 283 1101 300 1083 q 265 1145 265 1119 q 283 1189 265 1171 q 325 1207 300 1207 q 368 1189 350 1207 q 386 1145 386 1171 q 368 1101 386 1119 m 749 283 l 785 283 l 785 8 l 21 8 l 21 35 q 79 56 53 33 q 106 142 106 79 l 106 843 q 79 928 106 906 q 21 950 53 951 l 21 976 l 765 976 l 765 707 l 731 707 q 701 792 714 761 q 669 853 689 822 q 624 900 649 885 q 563 926 600 915 q 476 936 526 936 l 363 936 l 363 524 l 524 524 l 524 483 l 363 483 l 363 49 l 490 49 q 567 56 533 49 q 625 78 600 63 q 667 112 650 94 q 700 160 685 129 q 725 215 715 190 q 749 283 735 240 z "},"Ì":{"ha":463,"x_min":-103,"x_max":442,"o":"m 257 999 l 224 999 l -101 1281 q -10 1293 -69 1293 q 101 1281 50 1293 l 257 999 m 440 950 q 389 934 414 951 q 358 869 364 917 l 358 115 q 389 51 364 68 q 440 35 414 33 l 440 8 l 21 8 l 21 35 q 74 51 49 33 q 104 115 99 68 l 104 869 q 74 934 99 917 q 21 950 49 951 l 21 976 l 440 976 l 440 950 z "},"Í":{"ha":463,"x_min":21,"x_max":569,"o":"m 568 1281 l 243 999 l 210 999 l 367 1281 q 478 1293 418 1293 q 568 1281 538 1293 m 343 976 l 440 976 l 440 950 q 388 934 413 951 q 357 869 364 917 l 357 115 q 388 51 364 68 q 440 35 413 33 l 440 8 l 21 8 l 21 35 q 73 51 49 33 q 104 115 97 68 l 104 869 q 73 934 97 917 q 21 950 49 951 l 21 976 l 343 976 z "},"Î":{"ha":461,"x_min":8,"x_max":453,"o":"m 231 1118 l 93 1038 l 8 1038 l 217 1253 l 244 1253 l 453 1038 l 368 1038 l 231 1118 m 343 976 l 440 976 l 440 950 q 388 934 413 951 q 357 869 364 917 l 357 115 q 388 51 364 68 q 440 35 413 33 l 440 8 l 21 8 l 21 35 q 73 51 49 33 q 104 115 97 68 l 104 869 q 73 934 97 917 q 21 950 49 951 l 21 976 l 343 976 z "},"Ï":{"ha":461,"x_min":21,"x_max":440,"o":"m 196 1101 q 187 1092 196 1101 q 153 1083 178 1083 q 110 1101 128 1083 q 93 1145 93 1119 q 110 1189 93 1171 q 153 1207 128 1207 q 196 1189 178 1207 q 214 1145 214 1171 q 196 1101 214 1119 m 351 1101 q 342 1092 351 1101 q 308 1083 333 1083 q 265 1101 282 1083 q 247 1145 247 1119 q 265 1189 247 1171 q 308 1207 282 1207 q 351 1189 333 1207 q 368 1145 368 1171 q 351 1101 368 1119 m 440 950 q 388 934 413 951 q 357 869 364 917 l 357 115 q 388 51 364 68 q 440 35 413 33 l 440 8 l 21 8 l 21 35 q 73 51 49 33 q 104 115 97 68 l 104 869 q 73 934 97 917 q 21 950 49 951 l 21 976 l 440 976 l 440 950 z "},"Ñ":{"ha":917,"x_min":19,"x_max":899,"o":"m 338 1119 q 322 1076 329 1103 l 301 1076 q 335 1196 310 1143 q 396 1251 360 1251 q 427 1238 410 1251 q 471 1200 444 1225 q 518 1160 500 1172 q 551 1147 536 1147 q 581 1172 569 1147 q 597 1218 589 1189 l 617 1218 q 583 1094 608 1149 q 522 1039 558 1039 q 491 1052 508 1039 q 447 1090 474 1065 q 399 1131 417 1118 q 367 1144 382 1144 q 338 1119 349 1144 m 814 976 l 897 976 l 897 950 q 842 930 868 951 q 814 850 815 908 l 814 8 l 739 8 l 150 888 l 150 124 q 179 52 154 71 q 233 35 204 33 l 233 8 l 21 8 l 21 35 q 79 56 53 33 q 106 142 106 79 l 106 278 l 106 819 q 78 918 106 886 q 21 950 51 950 l 21 976 l 401 976 l 769 415 l 769 857 q 740 931 765 911 q 685 950 714 951 l 685 976 l 814 976 z "},"Ò":{"ha":1019,"x_min":28,"x_max":992,"o":"m 485 999 l 451 999 l 126 1281 q 218 1293 158 1293 q 329 1281 278 1293 l 485 999 m 508 993 q 698 959 611 993 q 840 867 785 925 q 935 733 896 808 q 982 575 974 658 q 982 409 990 492 q 935 251 974 326 q 840 118 896 176 q 699 26 785 60 q 509 -8 613 -8 q 319 26 406 -8 q 178 118 233 60 q 83 251 122 176 q 36 409 44 326 q 36 575 28 492 q 84 733 44 658 q 179 867 124 808 q 321 959 235 925 q 508 993 407 993 m 676 63 q 747 124 721 81 q 777 227 772 168 q 774 358 782 286 q 742 501 765 429 q 686 644 718 574 q 613 771 654 714 q 527 869 571 828 q 435 925 483 911 q 342 922 386 939 q 271 860 297 904 q 240 758 244 817 q 243 627 235 699 q 276 483 251 556 q 331 341 300 411 q 404 213 363 271 q 490 115 446 156 q 582 60 533 74 q 676 63 631 46 z "},"Ó":{"ha":1019,"x_min":28,"x_max":992,"o":"m 857 1281 l 532 999 l 499 999 l 656 1281 q 767 1293 707 1293 q 857 1281 826 1293 m 508 993 q 698 959 611 993 q 840 867 785 925 q 935 733 896 808 q 982 575 974 658 q 982 409 990 492 q 935 251 974 326 q 840 118 896 176 q 699 26 785 60 q 509 -8 613 -8 q 319 26 406 -8 q 178 118 233 60 q 83 251 122 176 q 36 409 44 326 q 36 575 28 492 q 84 733 44 658 q 179 867 124 808 q 321 959 235 925 q 508 993 407 993 m 676 63 q 747 124 721 81 q 777 227 772 168 q 774 358 782 286 q 742 501 765 429 q 686 644 718 574 q 613 771 654 714 q 527 869 571 828 q 435 925 483 911 q 342 922 386 939 q 271 860 297 904 q 240 758 244 817 q 243 627 235 699 q 276 483 251 556 q 331 341 300 411 q 404 213 363 271 q 490 115 446 156 q 582 60 533 74 q 676 63 631 46 z "},"Ô":{"ha":1019,"x_min":28,"x_max":992,"o":"m 510 1118 l 371 1038 l 286 1038 l 496 1253 l 522 1253 l 731 1038 l 647 1038 l 510 1118 m 508 993 q 698 959 611 993 q 840 867 785 925 q 935 733 896 808 q 982 575 974 658 q 982 409 990 492 q 935 251 974 326 q 840 118 896 176 q 699 26 785 60 q 509 -8 613 -8 q 319 26 406 -8 q 178 118 233 60 q 83 251 122 176 q 36 409 44 326 q 36 575 28 492 q 84 733 44 658 q 179 867 124 808 q 321 959 235 925 q 508 993 407 993 m 676 63 q 747 124 721 81 q 777 227 772 168 q 774 358 782 286 q 742 501 765 429 q 686 644 718 574 q 613 771 654 714 q 527 869 571 828 q 435 925 483 911 q 342 922 386 939 q 271 860 297 904 q 240 758 244 817 q 243 627 235 699 q 276 483 251 556 q 331 341 300 411 q 404 213 363 271 q 490 115 446 156 q 582 60 533 74 q 676 63 631 46 z "},"Õ":{"ha":1019,"x_min":28,"x_max":992,"o":"m 388 1119 q 372 1076 379 1103 l 351 1076 q 383 1196 360 1143 q 446 1251 410 1251 q 477 1238 460 1251 q 521 1200 494 1225 q 568 1160 550 1172 q 601 1147 586 1147 q 631 1172 619 1147 q 647 1218 639 1190 l 667 1218 q 633 1094 658 1149 q 572 1039 608 1039 q 541 1052 558 1039 q 497 1090 524 1065 q 449 1131 467 1118 q 417 1144 432 1144 q 388 1119 399 1144 m 508 993 q 698 959 611 993 q 840 867 785 925 q 935 733 896 808 q 982 575 974 658 q 982 409 990 492 q 935 251 974 326 q 840 118 896 176 q 699 26 785 60 q 509 -8 613 -8 q 319 26 406 -8 q 178 118 233 60 q 83 251 122 176 q 36 409 44 326 q 36 575 28 492 q 84 733 44 658 q 179 867 124 808 q 321 959 235 925 q 508 993 407 993 m 676 63 q 747 124 721 81 q 777 227 772 168 q 774 358 782 286 q 742 501 765 429 q 686 644 718 574 q 613 771 654 714 q 527 869 571 828 q 435 925 483 911 q 342 922 386 939 q 271 860 297 904 q 240 758 244 817 q 243 627 235 699 q 276 483 251 556 q 331 341 300 411 q 404 213 363 271 q 490 115 446 156 q 582 60 533 74 q 676 63 631 46 z "},"Ö":{"ha":1019,"x_min":28,"x_max":992,"o":"m 629 1101 q 620 1092 629 1101 q 586 1083 611 1083 q 543 1101 561 1083 q 525 1145 525 1119 q 543 1189 525 1171 q 586 1207 561 1207 q 629 1189 611 1207 q 647 1145 647 1171 q 629 1101 647 1119 m 475 1101 q 466 1092 475 1101 q 432 1083 457 1083 q 389 1101 407 1083 q 371 1145 371 1119 q 389 1189 371 1171 q 432 1207 407 1207 q 475 1189 457 1207 q 493 1145 493 1171 q 475 1101 493 1119 m 508 993 q 698 959 611 993 q 840 867 785 925 q 935 733 896 808 q 982 575 974 658 q 982 409 990 492 q 935 251 974 326 q 840 118 896 176 q 699 26 785 60 q 509 -8 613 -8 q 319 26 406 -8 q 178 118 233 60 q 83 251 122 176 q 36 409 44 326 q 36 575 28 492 q 84 733 44 658 q 179 867 124 808 q 321 959 235 925 q 508 993 407 993 m 676 63 q 747 124 721 81 q 777 227 772 168 q 774 358 782 286 q 742 501 765 429 q 686 644 718 574 q 613 771 654 714 q 527 869 571 828 q 435 925 483 911 q 342 922 386 939 q 271 860 297 904 q 240 758 244 817 q 243 627 235 699 q 276 483 251 556 q 331 341 300 411 q 404 213 363 271 q 490 115 446 156 q 582 60 533 74 q 676 63 631 46 z "},"×":{"ha":593,"x_min":46,"x_max":547,"o":"m 547 688 l 325 465 l 547 244 l 518 215 l 296 438 l 75 215 l 46 244 l 268 465 l 46 688 l 75 717 l 296 494 l 518 717 l 547 688 z "},"Ø":{"ha":1018,"x_min":24,"x_max":994,"o":"m 654 974 q 812 892 743 949 q 920 761 881 835 q 976 601 960 688 q 985 430 993 515 q 940 265 976 344 q 847 125 904 186 q 703 28 790 64 q 508 -8 615 -8 q 403 1 454 -8 l 385 -68 l 343 -68 l 364 11 q 206 93 275 36 q 97 224 138 150 q 41 383 57 297 q 33 555 25 469 q 78 719 42 640 q 171 860 114 799 q 315 957 228 921 q 508 993 403 993 q 615 983 564 993 l 633 1053 l 675 1053 l 654 974 m 342 922 q 251 811 274 896 q 244 620 228 726 q 306 400 261 514 q 413 201 350 286 l 574 822 q 342 922 451 965 m 676 63 q 767 174 743 89 q 774 365 790 258 q 712 584 757 471 q 606 782 667 697 l 444 161 q 676 63 565 19 z "},"Ù":{"ha":919,"x_min":10,"x_max":907,"o":"m 586 999 l 553 999 l 228 1281 q 319 1293 260 1293 q 431 1281 379 1293 l 586 999 m 693 976 l 906 976 l 906 949 q 851 932 876 951 q 822 860 826 913 l 822 368 q 790 203 821 276 q 713 84 760 129 q 613 15 667 39 q 508 -8 560 -8 q 348 14 421 -8 q 217 83 275 36 q 128 210 160 131 q 96 393 96 289 l 96 707 l 96 843 q 69 928 96 906 q 11 950 43 951 l 11 976 l 429 976 l 429 950 q 374 931 400 951 q 346 853 347 910 l 346 349 q 349 244 346 288 q 364 160 353 201 q 394 93 375 118 q 447 53 414 68 q 528 38 481 38 q 703 131 629 38 q 778 357 778 225 l 778 707 l 778 843 q 751 928 778 906 q 693 950 725 951 l 693 976 z "},"Ú":{"ha":919,"x_min":11,"x_max":907,"o":"m 906 1281 l 581 999 l 547 999 l 703 1281 q 814 1293 754 1293 q 906 1281 874 1293 m 693 976 l 906 976 l 906 949 q 851 932 876 951 q 822 860 826 913 l 822 368 q 790 203 821 276 q 713 84 760 129 q 613 15 667 39 q 508 -8 560 -8 q 348 14 421 -8 q 217 83 275 36 q 128 210 160 131 q 96 393 96 289 l 96 707 l 96 843 q 69 928 96 906 q 11 950 43 951 l 11 976 l 429 976 l 429 950 q 374 931 400 951 q 346 853 347 910 l 346 349 q 349 244 346 288 q 364 160 353 201 q 394 93 375 118 q 447 53 414 68 q 528 38 481 38 q 703 131 629 38 q 778 357 778 225 l 778 707 l 778 843 q 751 928 778 906 q 693 950 725 951 l 693 976 z "},"Û":{"ha":919,"x_min":11,"x_max":907,"o":"m 518 1118 l 379 1038 l 296 1038 l 504 1253 l 532 1253 l 740 1038 l 656 1038 l 518 1118 m 693 976 l 906 976 l 906 949 q 851 932 876 951 q 822 860 826 913 l 822 368 q 790 203 821 276 q 713 84 760 129 q 613 15 667 39 q 508 -8 560 -8 q 348 14 421 -8 q 217 83 275 36 q 128 210 160 131 q 96 393 96 289 l 96 707 l 96 843 q 69 928 96 906 q 11 950 43 951 l 11 976 l 429 976 l 429 950 q 374 931 400 951 q 346 853 347 910 l 346 349 q 349 244 346 288 q 364 160 353 201 q 394 93 375 118 q 447 53 414 68 q 528 38 481 38 q 703 131 629 38 q 778 357 778 225 l 778 707 l 778 843 q 751 928 778 906 q 693 950 725 951 l 693 976 z "},"Ü":{"ha":919,"x_min":11,"x_max":907,"o":"m 681 1101 q 673 1092 681 1101 q 638 1083 664 1083 q 595 1101 613 1083 q 578 1145 578 1119 q 595 1189 578 1171 q 638 1207 613 1207 q 681 1189 664 1207 q 699 1145 699 1171 q 681 1101 699 1119 m 526 1101 q 517 1092 526 1101 q 483 1083 508 1083 q 441 1101 458 1083 q 424 1145 424 1119 q 441 1189 424 1171 q 483 1207 458 1207 q 526 1189 508 1207 q 544 1145 544 1171 q 526 1101 544 1119 m 693 976 l 906 976 l 906 949 q 851 932 876 951 q 822 860 826 913 l 822 368 q 790 203 821 276 q 713 84 760 129 q 613 15 667 39 q 508 -8 560 -8 q 348 14 421 -8 q 217 83 275 36 q 128 210 160 131 q 96 393 96 289 l 96 707 l 96 843 q 69 928 96 906 q 11 950 43 951 l 11 976 l 429 976 l 429 950 q 374 931 400 951 q 346 853 347 910 l 346 349 q 349 244 346 288 q 364 160 353 201 q 394 93 375 118 q 447 53 414 68 q 528 38 481 38 q 703 131 629 38 q 778 357 778 225 l 778 707 l 778 843 q 751 928 778 906 q 693 950 725 951 l 693 976 z "},"Ý":{"ha":985,"x_min":-14,"x_max":999,"o":"m 697 1281 q 808 1293 749 1293 q 900 1281 868 1293 l 575 999 l 542 999 l 697 1281 m 778 975 l 999 975 l 999 947 q 923 924 968 947 q 839 842 878 900 l 614 454 l 614 132 q 642 53 615 74 q 697 33 668 32 l 697 6 l 279 6 l 279 33 q 338 55 311 32 q 364 140 364 78 l 364 276 l 364 446 l 146 840 q 62 923 107 899 q -14 947 17 947 l -14 975 l 415 975 l 415 947 q 388 940 397 947 q 379 907 378 932 q 401 840 381 882 l 401 840 l 585 489 l 790 842 q 813 907 811 882 q 805 940 815 932 q 778 947 794 947 l 778 975 z "},"ß":{"ha":1024,"x_min":18,"x_max":997,"o":"m 108 685 l 108 768 q 219 958 108 893 q 515 1022 331 1022 q 797 974 686 1022 q 907 829 907 925 q 838 708 907 751 q 649 636 769 664 q 997 243 997 481 q 954 103 997 158 q 843 23 911 49 q 699 -3 775 -3 q 472 69 551 -3 l 490 96 q 619 53 546 53 q 722 81 693 53 q 751 182 751 110 q 689 374 751 290 q 501 556 626 457 l 501 588 q 653 722 614 650 q 693 858 693 794 q 544 992 693 992 q 442 968 478 992 q 394 901 407 944 q 382 788 382 858 l 382 11 l 26 11 l 26 36 l 75 47 q 102 57 96 51 q 108 78 108 63 l 108 649 l 18 649 l 18 685 l 108 685 z "},"à":{"ha":821,"x_min":14,"x_max":808,"o":"m 392 751 l 361 751 l 56 1017 q 142 1028 86 1028 q 246 1017 197 1028 l 392 751 m 726 450 l 726 121 q 742 45 726 65 q 808 25 757 25 l 808 0 l 544 0 q 490 16 506 0 q 474 69 474 32 l 474 76 q 146 10 279 -60 q 36 168 57 57 q 81 364 15 282 q 351 428 168 474 q 474 382 410 413 l 474 483 q 439 592 474 556 q 350 629 404 629 q 280 607 314 629 q 224 553 246 585 q 187 495 201 522 q 169 450 172 468 l 138 449 l 85 607 q 392 692 194 692 q 516 678 458 692 q 622 638 574 665 q 699 563 671 611 q 726 450 726 514 m 472 121 l 472 344 q 313 315 368 394 q 288 172 271 254 q 363 85 304 94 q 472 121 410 76 z "},"á":{"ha":821,"x_min":14,"x_max":808,"o":"m 714 1017 l 408 751 l 376 751 l 524 1017 q 628 1028 572 1028 q 714 1017 683 1028 m 726 121 q 742 45 726 65 q 808 25 757 25 l 808 0 l 544 0 q 490 16 506 0 q 474 69 474 32 l 474 76 q 146 10 279 -60 q 36 168 57 57 q 81 364 15 282 q 351 428 168 474 q 474 382 410 413 l 474 483 q 439 592 474 556 q 350 629 404 629 q 280 607 314 629 q 224 553 246 585 q 187 495 201 522 q 169 450 172 468 l 138 449 l 85 607 q 392 692 194 692 q 516 678 458 692 q 622 638 574 665 q 699 563 671 611 q 726 450 726 514 l 726 121 m 472 121 l 472 344 q 313 315 368 394 q 288 172 271 254 q 363 85 304 94 q 472 121 410 76 z "},"â":{"ha":821,"x_min":14,"x_max":808,"o":"m 419 864 l 290 789 l 211 789 l 407 990 l 433 990 l 628 789 l 549 789 l 419 864 m 726 450 l 726 121 q 742 45 726 65 q 808 25 757 25 l 808 0 l 544 0 q 490 16 506 0 q 474 69 474 32 l 474 76 q 146 10 279 -60 q 36 168 57 57 q 81 364 15 282 q 351 428 168 474 q 474 382 410 413 l 474 483 q 439 592 474 556 q 350 629 404 629 q 280 607 314 629 q 224 553 246 585 q 187 495 201 522 q 169 450 172 468 l 138 449 l 85 607 q 392 692 194 692 q 516 678 458 692 q 622 638 574 665 q 699 563 671 611 q 726 450 726 514 m 472 121 l 472 344 q 313 315 368 394 q 288 172 271 254 q 363 85 304 94 q 472 121 410 76 z "},"ã":{"ha":821,"x_min":14,"x_max":808,"o":"m 306 865 q 290 825 299 850 l 271 825 q 303 938 279 888 q 361 990 326 990 q 390 978 374 990 q 431 942 406 965 q 475 903 458 915 q 507 890 492 890 q 533 915 524 890 q 549 958 542 932 l 568 958 q 538 842 560 893 q 479 790 513 790 q 449 803 465 790 q 408 838 433 815 q 364 876 381 864 q 333 889 347 889 q 306 865 317 889 m 726 450 l 726 121 q 742 45 726 65 q 808 25 757 25 l 808 0 l 544 0 q 490 16 506 0 q 474 69 474 32 l 474 76 q 146 10 279 -60 q 36 168 57 57 q 81 364 15 282 q 351 428 168 474 q 474 382 410 413 l 474 483 q 439 592 474 556 q 350 629 404 629 q 280 607 314 629 q 224 553 246 585 q 187 495 201 522 q 169 450 172 468 l 138 449 l 85 607 q 392 692 194 692 q 516 678 458 692 q 622 638 574 665 q 699 563 671 611 q 726 450 726 514 m 472 121 l 472 344 q 313 315 368 394 q 288 172 271 254 q 363 85 304 94 q 472 121 410 76 z "},"ä":{"ha":821,"x_min":14,"x_max":808,"o":"m 533 849 q 525 840 533 849 q 493 832 517 832 q 452 849 469 832 q 435 890 435 865 q 452 931 435 914 q 493 949 469 949 q 533 931 517 949 q 550 890 550 914 q 533 849 550 865 m 388 849 q 379 840 388 849 q 347 832 371 832 q 307 849 324 832 q 290 890 290 865 q 307 931 290 914 q 347 949 324 949 q 388 931 371 949 q 404 890 404 914 q 388 849 404 865 m 726 450 l 726 121 q 742 45 726 65 q 808 25 757 25 l 808 0 l 544 0 q 490 16 506 0 q 474 69 474 32 l 474 76 q 146 10 279 -60 q 36 168 57 57 q 81 364 15 282 q 351 428 168 474 q 474 382 410 413 l 474 483 q 439 592 474 556 q 350 629 404 629 q 280 607 314 629 q 224 553 246 585 q 187 495 201 522 q 169 450 172 468 l 138 449 l 85 607 q 392 692 194 692 q 516 678 458 692 q 622 638 574 665 q 699 563 671 611 q 726 450 726 514 m 472 121 l 472 344 q 313 315 368 394 q 288 172 271 254 q 363 85 304 94 q 472 121 410 76 z "},"å":{"ha":821,"x_min":14,"x_max":808,"o":"m 726 450 l 726 121 q 742 45 726 65 q 808 25 757 25 l 808 0 l 544 0 q 490 16 506 0 q 474 69 474 32 l 474 76 q 146 10 279 -60 q 36 168 57 57 q 81 364 15 282 q 351 428 168 474 q 474 382 410 413 l 474 483 q 439 592 474 556 q 350 629 404 629 q 280 607 314 629 q 224 553 246 585 q 187 495 201 522 q 169 450 172 468 l 138 449 l 85 607 q 351 692 185 685 q 289 731 314 700 q 264 803 264 763 q 297 883 264 850 q 378 917 331 917 q 458 883 425 917 q 492 803 492 850 q 467 732 492 763 q 406 692 443 701 q 526 676 471 690 q 628 635 582 663 q 700 560 674 607 q 726 450 726 513 m 325 855 q 314 844 325 855 q 303 803 303 833 q 325 750 303 772 q 378 728 347 728 q 430 750 408 728 q 451 803 451 772 q 430 855 451 833 q 378 876 408 876 q 325 855 347 876 m 472 121 l 472 344 q 313 315 368 394 q 288 172 271 254 q 363 85 304 94 q 472 121 410 76 z "},"æ":{"ha":1181,"x_min":14,"x_max":1149,"o":"m 1147 89 q 1013 8 1079 33 q 844 -17 946 -17 q 715 0 774 -17 l 544 0 q 490 16 506 0 q 474 69 474 32 l 474 76 q 146 10 279 -60 q 36 168 57 57 q 81 364 15 282 q 351 428 168 474 q 474 382 410 413 l 474 483 q 439 592 474 556 q 350 629 404 629 q 280 607 314 629 q 224 553 246 585 q 187 495 201 522 q 169 450 172 468 l 138 449 l 85 607 q 392 692 194 692 q 632 632 543 692 q 838 690 721 690 q 1015 640 939 690 q 1119 501 1092 589 q 1117 299 1147 414 l 731 299 q 731 284 731 293 q 737 249 732 275 q 749 199 742 222 q 772 146 756 175 q 809 96 788 117 q 865 60 831 75 q 943 46 900 46 q 1038 67 979 46 q 1129 115 1096 88 l 1147 89 m 799 657 q 756 624 774 657 q 734 543 739 590 q 727 449 729 496 q 728 368 725 401 l 729 335 l 872 335 q 887 411 883 358 q 884 519 890 464 q 856 615 878 574 q 799 657 833 657 m 472 121 l 472 346 q 313 315 368 394 q 288 172 271 254 q 363 85 304 94 q 472 121 410 76 z "},"ç":{"ha":706,"x_min":11,"x_max":681,"o":"m 451 -49 q 469 -94 479 -71 q 424 -129 458 -119 q 338 -139 389 -139 q 261 -126 285 -139 l 261 -114 q 324 -125 290 -125 q 365 -120 350 -125 q 383 -101 379 -115 q 376 -72 388 -83 q 340 -60 364 -60 q 286 -69 301 -60 l 343 -17 q 88 125 172 -15 q 40 403 13 249 q 192 639 69 563 q 381 690 272 690 q 664 635 553 690 l 647 453 l 621 453 q 440 654 564 654 q 317 532 361 654 q 294 249 269 400 q 421 50 322 86 q 504 44 458 36 q 661 118 572 57 l 679 92 q 378 -15 550 -7 l 365 -28 q 451 -49 422 -28 z "},"è":{"ha":742,"x_min":19,"x_max":708,"o":"m 418 751 l 386 751 l 82 1017 q 167 1028 111 1028 q 271 1017 224 1028 l 418 751 m 689 115 l 707 89 q 572 8 639 33 q 404 -17 506 -17 q 215 22 296 -17 q 93 124 133 61 q 37 262 53 186 q 42 413 21 338 q 106 550 64 488 q 226 651 149 613 q 397 690 303 690 q 576 640 500 690 q 680 501 651 589 q 676 299 708 414 l 292 299 q 292 284 292 293 q 297 249 292 275 q 309 199 301 222 q 333 146 317 175 q 370 96 349 117 q 426 60 392 75 q 503 46 460 46 q 597 67 539 46 q 689 115 656 88 m 360 657 q 317 624 333 657 q 294 543 300 590 q 288 449 289 496 q 288 368 286 401 l 289 335 l 433 335 q 447 411 444 358 q 444 519 450 464 q 415 615 438 574 q 360 657 393 657 z "},"é":{"ha":740,"x_min":19,"x_max":708,"o":"m 707 1017 l 403 751 l 371 751 l 518 1017 q 622 1028 565 1028 q 707 1017 678 1028 m 503 46 q 597 67 539 46 q 689 115 656 88 l 707 89 q 572 8 639 33 q 404 -17 506 -17 q 215 22 296 -17 q 93 124 133 61 q 37 262 53 186 q 42 413 21 338 q 106 550 64 488 q 226 651 149 613 q 397 690 303 690 q 576 640 500 690 q 680 501 651 589 q 676 299 708 414 l 292 299 q 292 284 292 293 q 297 249 292 275 q 309 199 301 222 q 333 146 317 175 q 370 96 349 117 q 426 60 392 75 q 503 46 460 46 m 360 657 q 317 624 333 657 q 294 543 300 590 q 288 449 289 496 q 288 368 286 401 l 289 335 l 433 335 q 447 411 444 358 q 444 519 450 464 q 415 615 438 574 q 360 657 393 657 z "},"ê":{"ha":742,"x_min":19,"x_max":708,"o":"m 369 864 l 240 789 l 161 789 l 357 990 l 382 990 l 578 789 l 499 789 l 369 864 m 689 115 l 707 89 q 572 8 639 33 q 404 -17 506 -17 q 215 22 296 -17 q 93 124 133 61 q 37 262 53 186 q 42 413 21 338 q 106 550 64 488 q 226 651 149 613 q 397 690 303 690 q 576 640 500 690 q 680 501 651 589 q 676 299 708 414 l 292 299 q 292 284 292 293 q 297 249 292 275 q 309 199 301 222 q 333 146 317 175 q 369 96 349 117 q 425 60 390 75 q 503 46 460 46 q 597 67 539 46 q 689 115 656 88 m 360 657 q 317 624 333 657 q 294 543 300 590 q 288 449 289 496 q 288 368 286 401 l 289 335 l 433 335 q 447 411 444 358 q 444 519 450 464 q 415 615 438 574 q 360 657 393 657 z "},"ë":{"ha":742,"x_min":29,"x_max":708,"o":"m 482 849 q 474 840 482 849 q 442 832 465 832 q 401 849 418 832 q 385 890 385 865 q 401 931 385 914 q 442 949 418 949 q 482 931 465 949 q 499 890 499 914 q 482 849 499 865 m 338 849 q 329 840 338 849 q 297 832 321 832 q 257 849 274 832 q 240 890 240 865 q 257 931 240 914 q 297 949 274 949 q 338 931 321 949 q 354 890 354 914 q 338 849 354 865 m 689 115 l 707 89 q 572 8 639 33 q 404 -17 506 -17 q 251 8 319 -17 q 139 73 182 32 q 67 167 96 114 q 35 278 39 219 q 39 396 31 338 q 78 507 47 454 q 153 601 110 560 q 260 666 196 642 q 397 690 324 690 q 576 640 500 690 q 680 501 651 589 q 676 299 708 414 l 292 299 q 292 284 292 293 q 297 249 292 275 q 309 199 301 222 q 333 146 317 175 q 370 96 349 117 q 426 60 392 75 q 503 46 460 46 q 597 67 539 46 q 689 115 656 88 m 360 657 q 317 624 333 657 q 294 543 300 590 q 288 449 289 496 q 288 368 286 401 l 289 335 l 433 335 q 447 411 444 358 q 444 519 450 464 q 415 615 438 574 q 360 657 393 657 z "},"ì":{"ha":449,"x_min":-101,"x_max":433,"o":"m 235 751 l 204 751 l -101 1017 q -16 1028 -72 1028 q 89 1017 40 1028 l 235 751 m 353 678 l 353 99 q 373 42 353 58 q 432 25 393 25 l 432 0 l 19 0 l 19 25 q 101 93 101 25 l 101 565 q 81 635 101 618 q 19 651 61 651 l 19 676 l 353 678 z "},"í":{"ha":449,"x_min":19,"x_max":535,"o":"m 533 1017 l 228 751 l 197 751 l 343 1017 q 448 1028 392 1028 q 533 1017 504 1028 m 353 678 l 353 99 q 373 42 353 58 q 432 25 393 25 l 432 0 l 19 0 l 19 25 q 101 93 101 25 l 101 565 q 81 635 101 618 q 19 651 61 651 l 19 676 l 353 678 z "},"î":{"ha":447,"x_min":17,"x_max":435,"o":"m 225 864 l 96 789 l 17 789 l 213 990 l 239 990 l 433 789 l 354 789 l 225 864 m 353 678 l 353 99 q 373 42 353 58 q 432 25 393 25 l 432 0 l 19 0 l 19 25 q 101 93 101 25 l 101 565 q 81 635 101 618 q 19 651 60 651 l 19 676 l 353 678 z "},"ï":{"ha":447,"x_min":19,"x_max":432,"o":"m 339 849 q 331 840 339 849 q 299 832 322 832 q 258 849 275 832 q 242 890 242 865 q 258 931 242 914 q 299 949 275 949 q 339 931 322 949 q 356 890 356 914 q 339 849 356 865 m 193 849 q 185 840 193 849 q 153 832 176 832 q 113 849 129 832 q 96 890 96 865 q 113 931 96 914 q 153 949 129 949 q 193 931 176 949 q 210 890 210 914 q 193 849 210 865 m 353 678 l 353 99 q 373 42 353 58 q 432 25 393 25 l 432 0 l 19 0 l 19 25 q 101 93 101 25 l 101 565 q 81 635 101 618 q 19 651 61 651 l 19 676 l 353 678 z "},"ñ":{"ha":894,"x_min":18,"x_max":882,"o":"m 336 865 q 322 825 329 850 l 303 825 q 333 938 311 888 q 392 990 357 990 q 421 978 404 990 q 461 942 438 965 q 507 903 490 915 q 538 890 524 890 q 565 915 554 890 q 581 958 572 931 l 599 958 q 568 842 592 893 q 510 790 544 790 q 481 803 497 790 q 440 838 464 815 q 394 876 411 864 q 364 889 378 889 q 336 865 347 889 m 800 135 q 882 25 800 25 l 882 0 l 611 0 q 544 78 544 0 l 544 499 q 522 585 544 556 q 467 616 499 615 q 405 600 436 617 q 357 553 374 583 l 357 135 q 377 50 357 75 q 435 25 397 25 l 435 0 l 19 0 l 19 25 q 101 135 101 25 l 101 564 q 81 633 101 617 q 19 650 61 650 l 19 675 l 332 676 l 357 676 l 357 588 q 572 690 432 690 q 740 630 681 690 q 800 463 800 569 l 800 135 z "},"ò":{"ha":771,"x_min":31,"x_max":740,"o":"m 386 751 l 356 751 l 50 1017 q 135 1028 79 1028 q 240 1017 192 1028 l 386 751 m 385 690 q 524 666 461 690 q 628 601 588 642 q 698 507 669 560 q 733 396 726 454 q 733 278 739 338 q 698 167 726 219 q 628 73 669 114 q 524 8 588 32 q 385 -17 461 -17 q 246 8 310 -17 q 142 73 182 32 q 72 167 101 114 q 38 278 43 219 q 38 396 32 338 q 73 507 44 454 q 142 601 101 560 q 247 666 183 642 q 385 690 310 690 m 489 44 q 494 294 542 96 q 376 585 451 478 q 281 631 319 668 q 271 379 225 576 q 388 90 313 199 q 489 44 449 3 z "},"ó":{"ha":771,"x_min":31,"x_max":740,"o":"m 707 1017 l 403 751 l 371 751 l 518 1017 q 622 1028 565 1028 q 707 1017 678 1028 m 385 690 q 524 666 461 690 q 628 601 588 642 q 698 507 669 560 q 733 396 726 454 q 733 278 739 338 q 698 167 726 219 q 628 73 669 114 q 524 8 588 32 q 385 -17 461 -17 q 246 8 310 -17 q 142 73 182 32 q 72 167 101 114 q 38 278 43 219 q 38 396 32 338 q 73 507 44 454 q 142 601 101 560 q 247 666 183 642 q 385 690 310 690 m 489 44 q 494 294 542 96 q 376 585 451 478 q 281 631 319 668 q 271 379 225 576 q 388 90 313 199 q 489 44 449 3 z "},"ô":{"ha":771,"x_min":31,"x_max":740,"o":"m 385 864 l 256 789 l 176 789 l 372 990 l 399 990 l 594 789 l 515 789 l 385 864 m 385 690 q 524 666 461 690 q 628 601 588 642 q 698 507 669 560 q 733 396 726 454 q 733 278 739 338 q 698 167 726 219 q 628 73 669 114 q 524 8 588 32 q 385 -17 461 -17 q 246 8 310 -17 q 142 73 182 32 q 72 167 101 114 q 38 278 43 219 q 38 396 32 338 q 73 507 44 454 q 142 601 101 560 q 247 666 183 642 q 385 690 310 690 m 489 44 q 494 294 542 96 q 376 585 451 478 q 281 631 319 668 q 271 379 225 576 q 388 90 313 199 q 489 44 449 3 z "},"õ":{"ha":771,"x_min":31,"x_max":740,"o":"m 271 865 q 257 825 264 850 l 238 825 q 268 938 244 888 q 326 990 292 990 q 356 978 339 990 q 396 942 372 965 q 441 903 424 915 q 472 890 458 890 q 500 915 489 890 q 515 958 507 932 l 533 958 q 503 842 526 893 q 444 790 479 790 q 415 803 432 790 q 375 838 399 815 q 329 876 346 864 q 299 889 313 889 q 271 865 282 889 m 385 690 q 524 666 461 690 q 628 601 588 642 q 698 507 669 560 q 733 396 726 454 q 733 278 739 338 q 698 167 726 219 q 628 73 669 114 q 524 8 588 32 q 385 -17 461 -17 q 246 8 310 -17 q 142 73 182 32 q 72 167 101 114 q 38 278 43 219 q 38 396 32 338 q 73 507 44 454 q 142 601 101 560 q 247 666 183 642 q 385 690 310 690 m 489 44 q 494 294 542 96 q 376 585 451 478 q 281 631 319 668 q 271 379 225 576 q 388 90 313 199 q 489 44 449 3 z "},"ö":{"ha":771,"x_min":31,"x_max":740,"o":"m 353 849 q 344 840 353 849 q 313 832 336 832 q 272 849 289 832 q 256 890 256 865 q 272 931 256 914 q 313 949 289 949 q 353 931 336 949 q 369 890 369 914 q 353 849 369 865 m 499 849 q 490 840 499 849 q 458 832 482 832 q 418 849 435 832 q 401 890 401 865 q 418 931 401 914 q 458 949 435 949 q 499 931 482 949 q 515 890 515 914 q 499 849 515 865 m 385 690 q 524 666 461 690 q 628 601 588 642 q 698 507 669 560 q 733 396 726 454 q 733 278 739 338 q 698 167 726 219 q 628 73 669 114 q 524 8 588 32 q 385 -17 461 -17 q 246 8 310 -17 q 142 73 182 32 q 72 167 101 114 q 38 278 43 219 q 38 396 32 338 q 73 507 44 454 q 142 601 101 560 q 247 666 183 642 q 385 690 310 690 m 489 44 q 494 294 542 96 q 376 585 451 478 q 281 631 319 668 q 271 379 225 576 q 388 90 313 199 q 489 44 449 3 z "},"ø":{"ha":771,"x_min":28,"x_max":742,"o":"m 526 665 q 629 599 585 642 q 699 506 674 557 q 733 394 724 454 q 733 277 742 335 q 698 166 725 219 q 628 72 671 113 q 524 8 586 32 q 385 -17 461 -17 q 282 -4 331 -17 l 261 -61 l 219 -61 l 244 8 q 142 73 186 31 q 72 167 97 115 q 38 279 47 219 q 38 397 29 339 q 73 508 46 454 q 142 601 100 561 q 247 666 183 642 q 385 690 310 690 q 489 676 440 690 l 510 735 l 551 735 l 526 665 m 281 631 q 252 534 253 604 q 270 381 251 464 q 322 219 289 299 l 424 500 q 347 620 386 582 q 281 631 308 658 m 489 44 q 515 138 515 69 q 497 288 515 207 q 447 447 478 368 l 344 168 q 422 51 383 88 q 489 44 460 15 z "},"ù":{"ha":890,"x_min":13,"x_max":875,"o":"m 390 751 l 360 751 l 54 1017 q 140 1028 83 1028 q 244 1017 196 1028 l 390 751 m 793 679 l 793 114 q 813 44 793 61 q 875 26 833 26 l 875 3 l 538 0 l 538 90 q 322 -12 463 -12 q 154 48 214 -12 q 94 215 94 108 l 94 543 q 13 653 94 653 l 13 676 l 283 676 q 350 600 350 676 l 350 179 q 373 92 350 122 q 427 61 396 63 q 490 77 458 60 q 538 124 521 94 l 538 542 q 517 628 538 603 q 460 653 497 653 l 460 676 l 793 679 z "},"ú":{"ha":890,"x_min":13,"x_max":875,"o":"m 713 1017 l 408 751 l 376 751 l 524 1017 q 627 1028 571 1028 q 713 1017 683 1028 m 793 679 l 793 114 q 813 44 793 61 q 875 26 833 26 l 875 3 l 538 0 l 538 90 q 322 -12 463 -12 q 154 48 214 -12 q 94 215 94 108 l 94 543 q 13 653 94 653 l 13 676 l 283 676 q 350 600 350 676 l 350 179 q 373 92 350 122 q 427 61 396 63 q 490 77 458 60 q 538 124 521 94 l 538 542 q 517 628 538 603 q 460 653 497 653 l 460 676 l 793 679 z "},"û":{"ha":890,"x_min":13,"x_max":875,"o":"m 399 864 l 269 789 l 190 789 l 386 990 l 411 990 l 607 789 l 528 789 l 399 864 m 793 679 l 793 114 q 813 44 793 61 q 875 26 833 26 l 875 3 l 538 0 l 538 90 q 322 -12 463 -12 q 154 48 214 -12 q 94 215 94 108 l 94 543 q 13 653 94 653 l 13 676 l 283 676 q 350 600 350 676 l 350 179 q 373 92 350 122 q 427 61 396 63 q 490 77 458 60 q 538 124 521 94 l 538 542 q 517 628 538 603 q 460 653 497 653 l 460 676 l 793 679 z "},"ü":{"ha":890,"x_min":13,"x_max":875,"o":"m 396 849 q 388 840 396 849 q 356 832 379 832 q 315 849 332 832 q 299 890 299 865 q 315 931 299 914 q 356 949 332 949 q 396 931 379 949 q 413 890 413 914 q 396 849 413 865 m 542 849 q 533 840 542 849 q 501 832 525 832 q 460 849 478 832 q 443 890 443 865 q 460 931 443 914 q 501 949 476 949 q 542 931 525 949 q 558 890 558 914 q 542 849 558 865 m 793 679 l 793 114 q 813 44 793 61 q 875 26 833 26 l 875 3 l 538 0 l 538 90 q 322 -12 463 -12 q 154 48 214 -12 q 94 215 94 108 l 94 543 q 13 653 94 653 l 13 676 l 283 676 q 350 600 350 676 l 350 179 q 373 92 350 122 q 427 61 396 63 q 490 77 458 60 q 538 124 521 94 l 538 542 q 517 628 538 603 q 460 653 497 653 l 460 676 l 793 679 z "},"ý":{"ha":793,"x_min":-1,"x_max":849,"o":"m 849 1017 l 543 751 l 513 751 l 658 1017 q 763 1028 707 1028 q 849 1017 818 1028 m 635 653 l 635 674 l 793 674 l 793 653 q 738 638 756 653 q 696 568 719 624 l 450 0 q 408 -94 425 -57 q 361 -181 390 -131 q 305 -260 332 -231 q 240 -310 278 -289 q 164 -332 203 -332 l 89 -121 q 258 -95 172 -121 q 413 -22 343 -69 l 101 574 q 52 639 71 625 q -1 653 33 653 l -1 674 l 433 674 l 433 653 q 399 645 413 653 q 379 616 385 638 q 393 557 374 594 l 533 274 l 665 579 q 672 635 679 618 q 635 653 664 653 z "},"ÿ":{"ha":793,"x_min":-1,"x_max":794,"o":"m 493 849 q 485 840 493 849 q 453 832 476 832 q 413 849 429 832 q 396 890 396 865 q 413 931 396 914 q 453 949 429 949 q 493 931 476 949 q 510 890 510 914 q 493 849 510 865 m 639 849 q 631 840 639 849 q 599 832 622 832 q 558 849 575 832 q 542 890 542 865 q 558 931 542 914 q 599 949 575 949 q 639 931 622 949 q 656 890 656 914 q 639 849 656 865 m 635 653 l 635 674 l 793 674 l 793 653 q 738 638 756 653 q 696 568 719 624 l 450 0 q 408 -94 425 -57 q 361 -181 390 -131 q 305 -260 332 -231 q 240 -310 278 -289 q 164 -332 203 -332 l 89 -121 q 258 -95 172 -121 q 413 -22 343 -69 l 101 574 q 52 639 71 625 q -1 653 33 653 l -1 674 l 433 674 l 433 653 q 399 645 413 653 q 379 616 385 638 q 393 557 374 594 l 533 274 l 665 579 q 672 635 679 618 q 635 653 664 653 z "},"Đ":{"ha":1013,"x_min":25,"x_max":983,"o":"m 518 976 q 718 935 628 976 q 865 825 808 893 q 951 670 921 757 q 981 492 981 583 q 952 315 982 401 q 867 160 922 228 q 721 50 811 92 q 518 8 631 8 l 25 8 l 25 35 q 83 58 57 35 q 110 143 110 82 l 110 467 l 61 467 l 61 518 l 110 518 l 110 842 q 87 928 110 907 q 25 950 64 950 l 25 976 l 518 976 m 417 49 q 552 87 492 49 q 650 188 613 125 q 708 330 688 250 q 728 492 728 410 q 708 655 728 575 q 650 797 688 735 q 552 898 613 860 q 417 936 492 936 l 360 936 l 360 518 l 401 518 l 401 467 l 360 467 l 360 49 l 417 49 z "},"đ":{"ha":888,"x_min":18,"x_max":872,"o":"m 789 806 l 789 133 q 815 51 789 78 q 871 25 842 25 l 871 0 l 610 0 q 555 16 572 0 q 538 69 538 32 l 538 78 q 169 35 314 -75 q 43 279 67 111 q 86 568 19 444 q 313 690 163 708 q 535 588 413 678 l 535 806 l 474 806 l 474 853 l 535 853 l 535 890 q 453 985 535 985 l 453 1010 l 763 1011 l 789 1011 l 789 853 l 853 853 l 853 806 l 789 806 m 535 121 l 535 547 q 340 535 411 636 q 292 311 283 454 q 371 110 301 168 q 535 121 438 54 z "},"ı":{"ha":476,"x_min":18,"x_max":461,"o":"m 19 36 l 68 47 q 95 57 89 51 q 101 78 101 63 l 101 601 q 95 622 101 617 q 68 632 89 628 l 19 643 l 19 668 l 351 710 l 378 710 l 378 78 q 384 57 378 63 q 411 47 390 51 l 460 36 l 460 11 l 19 11 l 19 36 z "},"Œ":{"ha":1500,"x_min":28,"x_max":1463,"o":"m 1425 283 l 1461 283 l 1461 8 l 697 8 l 697 25 q 508 -8 611 -8 q 319 26 406 -8 q 178 118 233 60 q 83 251 122 176 q 36 409 44 326 q 36 575 28 492 q 84 733 44 658 q 179 867 124 808 q 321 959 235 925 q 509 993 407 993 q 697 960 611 993 l 697 976 l 1442 976 l 1442 707 l 1408 707 q 1378 792 1390 761 q 1346 853 1365 822 q 1301 900 1326 885 q 1240 926 1276 915 q 1153 936 1203 936 l 1039 936 l 1039 524 l 1201 524 l 1201 483 l 1039 483 l 1039 49 l 1167 49 q 1243 56 1210 49 q 1301 78 1276 63 q 1344 112 1326 94 q 1377 160 1361 129 q 1403 215 1393 190 q 1425 283 1413 240 m 744 938 q 732 944 739 942 q 744 938 738 942 m 342 922 q 272 860 297 904 q 240 758 246 817 q 243 627 235 699 q 276 483 251 556 q 331 341 300 411 q 404 213 363 271 q 490 115 446 156 q 582 60 533 74 q 676 63 631 46 q 747 124 721 81 q 777 227 772 168 q 774 358 782 286 q 742 501 765 429 q 686 644 718 574 q 613 771 654 714 q 527 869 571 828 q 435 925 483 911 q 342 922 386 939 m 744 47 q 732 40 738 43 q 744 47 739 43 z "},"œ":{"ha":1207,"x_min":31,"x_max":1174,"o":"m 1154 115 l 1172 89 q 1038 8 1104 33 q 869 -17 971 -17 q 617 63 715 -17 q 385 -17 524 -17 q 246 8 310 -17 q 142 73 182 32 q 72 167 101 114 q 38 278 43 219 q 38 396 32 338 q 73 507 44 454 q 142 601 101 560 q 247 666 183 642 q 385 690 310 690 q 624 606 529 690 q 863 690 722 690 q 1041 640 965 690 q 1145 501 1117 589 q 1142 299 1174 414 l 757 299 q 758 284 757 293 q 763 249 758 275 q 774 199 767 222 q 798 146 782 175 q 835 96 814 117 q 891 60 857 75 q 968 46 925 46 q 1063 67 1004 46 q 1154 115 1121 88 m 489 44 q 494 294 542 96 q 376 585 451 478 q 281 631 319 668 q 271 379 225 576 q 388 90 313 199 q 489 44 449 3 m 825 657 q 782 624 799 657 q 760 543 765 590 q 753 449 754 496 q 753 368 751 401 l 754 335 l 899 335 q 913 411 910 358 q 909 519 915 464 q 881 615 903 574 q 825 657 858 657 z "},"Š":{"ha":785,"x_min":40,"x_max":757,"o":"m 413 1038 l 385 1038 l 176 1253 l 261 1253 l 399 1172 l 536 1253 l 621 1253 l 413 1038 m 222 819 q 251 752 222 785 q 328 691 281 719 q 432 632 375 663 q 546 565 489 601 q 650 488 603 529 q 727 389 697 446 q 757 265 757 332 q 733 154 757 203 q 672 76 710 106 q 582 26 633 46 q 479 -1 531 6 q 374 -8 428 -8 q 202 10 299 -8 q 47 57 106 28 l 82 301 l 115 301 q 199 97 135 167 q 367 28 264 28 q 492 74 444 28 q 539 188 539 121 q 518 262 539 228 q 462 321 497 296 q 381 372 426 346 q 290 421 336 399 q 198 474 243 443 q 118 538 153 504 q 62 621 83 572 q 40 726 40 669 q 62 842 40 793 q 117 920 83 892 q 199 965 150 949 q 295 988 249 982 q 399 993 342 993 q 690 931 568 993 l 660 718 l 625 718 q 526 892 594 828 q 364 956 458 956 q 261 917 300 956 q 222 819 222 878 z "},"š":{"ha":658,"x_min":43,"x_max":625,"o":"m 347 789 l 321 789 l 125 990 l 204 990 l 333 915 l 464 990 l 543 990 l 347 789 m 203 590 q 234 536 203 563 q 313 488 265 510 q 414 437 360 467 q 515 376 468 407 q 594 296 563 344 q 625 190 625 247 q 599 85 625 129 q 530 19 574 42 q 438 -14 486 -4 q 335 -24 390 -24 q 49 36 169 -24 l 67 225 l 88 225 q 165 63 110 115 q 319 10 219 10 q 406 40 375 10 q 436 108 436 69 q 407 174 436 143 q 334 224 378 204 q 240 272 290 244 q 145 326 189 299 q 72 399 101 353 q 43 501 43 444 q 326 692 43 692 q 462 675 378 692 q 581 638 546 658 l 565 471 l 543 471 q 460 614 510 567 q 324 661 410 661 q 203 590 203 661 z "},"Ÿ":{"ha":985,"x_min":-14,"x_max":999,"o":"m 714 1101 q 705 1092 714 1101 q 671 1083 696 1083 q 628 1101 646 1083 q 611 1145 611 1119 q 628 1189 611 1171 q 671 1207 646 1207 q 714 1189 696 1207 q 732 1145 732 1171 q 714 1101 732 1119 m 560 1101 q 551 1092 560 1101 q 517 1083 542 1083 q 474 1101 492 1083 q 456 1145 456 1119 q 474 1189 456 1171 q 517 1207 492 1207 q 560 1189 542 1207 q 578 1145 578 1171 q 560 1101 578 1119 m 778 975 l 999 975 l 999 947 q 923 924 968 947 q 839 842 878 900 l 614 454 l 614 132 q 642 53 615 74 q 697 33 668 32 l 697 6 l 279 6 l 279 33 q 338 55 311 32 q 364 140 364 78 l 364 276 l 364 446 l 146 840 q 62 923 107 899 q -14 947 17 947 l -14 975 l 415 975 l 415 947 q 388 940 397 947 q 379 907 378 932 q 401 840 381 882 l 401 840 l 585 489 l 790 842 q 813 907 811 882 q 805 940 815 932 q 778 947 794 947 l 778 975 z "},"Ž":{"ha":913,"x_min":10,"x_max":888,"o":"m 514 1038 l 486 1038 l 278 1253 l 363 1253 l 500 1172 l 639 1253 l 722 1253 l 514 1038 m 78 975 l 886 975 l 886 939 l 315 47 l 593 47 q 722 72 676 47 q 793 142 768 96 q 847 282 818 189 l 882 282 l 882 6 l 11 6 l 11 42 l 582 933 l 367 933 q 238 910 283 933 q 167 841 193 886 q 113 706 142 796 l 78 706 l 78 975 z "},"ž":{"ha":632,"x_min":24,"x_max":601,"o":"m 325 789 l 299 789 l 104 990 l 182 990 l 313 915 l 442 990 l 521 990 l 325 789 m 578 188 l 600 188 l 600 0 l 24 0 l 24 28 l 350 639 l 226 639 q 125 610 154 639 q 72 492 96 582 l 50 492 l 50 674 l 599 674 l 599 646 l 272 35 l 425 35 q 526 65 497 35 q 578 188 556 96 z "},"–":{"ha":688,"x_min":31,"x_max":657,"o":"m 657 378 l 31 378 l 31 417 l 657 417 l 657 378 z "},"—":{"ha":938,"x_min":31,"x_max":907,"o":"m 906 378 l 31 378 l 31 417 l 906 417 l 906 378 z "},"‘":{"ha":338,"x_min":49,"x_max":289,"o":"m 182 790 q 261 760 235 790 q 288 686 288 731 q 257 607 288 639 q 172 575 226 575 q 83 606 117 575 q 50 697 50 638 q 99 860 50 778 q 218 997 147 942 l 246 968 q 156 789 156 874 q 182 790 165 790 z "},"’":{"ha":338,"x_min":47,"x_max":288,"o":"m 156 778 q 76 808 103 778 q 49 882 49 838 q 80 960 49 928 q 165 992 111 992 q 253 960 221 992 q 286 871 286 929 q 238 708 286 790 q 119 569 190 625 l 92 599 q 182 779 182 694 q 156 778 172 778 z "},"“":{"ha":661,"x_min":49,"x_max":613,"o":"m 182 790 q 261 760 235 790 q 288 686 288 731 q 257 607 288 639 q 172 575 226 575 q 83 606 117 575 q 50 697 50 638 q 99 860 50 778 q 218 997 147 942 l 246 968 q 156 789 156 874 q 182 790 165 790 m 506 790 q 585 760 558 790 q 613 686 613 731 q 581 607 613 639 q 496 575 550 575 q 407 606 440 575 q 374 697 374 638 q 422 860 374 778 q 542 997 471 942 l 569 968 q 479 789 479 874 q 506 790 489 790 z "},"”":{"ha":661,"x_min":47,"x_max":611,"o":"m 156 778 q 76 808 103 778 q 49 882 49 838 q 80 960 49 928 q 165 992 111 992 q 253 960 221 992 q 286 871 286 929 q 238 708 286 790 q 119 569 190 625 l 92 599 q 182 779 182 694 q 156 778 172 778 m 479 778 q 399 808 426 778 q 372 882 372 838 q 403 960 372 928 q 489 992 435 992 q 578 960 544 992 q 611 871 611 929 q 563 708 611 790 q 443 569 514 625 l 415 599 q 506 779 506 694 q 479 778 496 778 z "},"„":{"ha":656,"x_min":44,"x_max":608,"o":"m 153 13 q 73 42 100 13 q 46 117 46 72 q 77 196 46 164 q 163 228 108 228 q 251 197 218 228 q 283 106 283 165 q 235 -57 283 25 q 117 -194 188 -139 l 89 -165 q 179 14 179 -69 q 153 13 169 13 m 476 13 q 397 42 424 13 q 369 117 369 72 q 401 196 369 164 q 486 228 432 228 q 575 197 542 228 q 608 106 608 165 q 560 -57 608 25 q 440 -194 511 -139 l 413 -165 q 503 14 503 -69 q 476 13 493 13 z "},"†":{"ha":638,"x_min":33,"x_max":603,"o":"m 593 799 q 603 728 603 774 q 593 657 603 682 l 336 713 l 419 18 q 319 3 378 3 q 218 18 260 3 l 299 713 l 44 657 q 35 728 35 682 q 44 799 35 774 l 297 743 l 229 1057 q 319 1072 258 1072 q 408 1057 379 1072 l 338 743 l 593 799 z "},"•":{"ha":469,"x_min":50,"x_max":419,"o":"m 326 241 q 306 229 326 241 q 235 217 285 217 q 142 241 185 217 q 75 306 100 265 q 50 397 50 347 q 75 487 50 446 q 142 552 100 528 q 234 576 185 576 q 326 552 283 576 q 393 487 368 528 q 418 397 418 446 q 393 306 418 347 q 326 241 368 265 z "},"…":{"ha":1067,"x_min":46,"x_max":1021,"o":"m 244 33 q 228 17 244 33 q 163 0 211 0 q 80 33 114 0 q 46 114 46 67 q 80 194 46 161 q 163 228 114 228 q 244 194 211 228 q 278 114 278 161 q 244 33 278 67 m 616 33 q 599 17 616 33 q 533 0 582 0 q 451 33 485 0 q 417 114 417 67 q 451 194 417 161 q 533 228 485 228 q 616 194 582 228 q 650 114 650 161 q 616 33 650 67 m 987 33 q 970 17 987 33 q 904 0 953 0 q 822 33 856 0 q 788 114 788 67 q 822 194 788 161 q 904 228 856 228 q 987 194 953 228 q 1021 114 1021 161 q 987 33 1021 67 z "},"‰":{"ha":1664,"x_min":43,"x_max":1618,"o":"m 106 930 q 137 961 106 930 q 277 992 168 992 q 448 930 386 992 q 510 763 510 868 q 448 594 510 657 q 277 532 386 532 q 106 594 168 532 q 44 763 44 657 q 106 930 44 868 m 217 606 q 225 582 217 606 q 277 557 233 557 q 337 606 321 557 q 353 762 353 656 q 337 917 353 868 q 277 967 321 967 q 217 918 233 967 q 201 763 201 869 q 217 606 201 656 m 811 981 l 853 981 l 299 11 l 258 11 l 811 981 m 663 398 q 694 429 663 398 q 834 460 725 460 q 1005 398 943 460 q 1067 231 1067 336 q 1005 63 1067 125 q 834 0 943 0 q 663 63 725 0 q 601 231 601 125 q 663 398 601 336 m 773 74 q 781 50 773 74 q 833 25 789 25 q 894 74 878 25 q 910 231 910 124 q 894 387 910 338 q 833 436 878 436 q 773 387 789 436 q 757 231 757 338 q 773 74 757 124 m 1214 398 q 1244 429 1214 398 q 1385 460 1275 460 q 1556 398 1494 460 q 1618 231 1618 336 q 1556 63 1618 125 q 1385 0 1494 0 q 1214 63 1275 0 q 1153 231 1153 125 q 1214 398 1153 336 m 1324 74 q 1332 50 1324 74 q 1385 25 1340 25 q 1445 74 1429 25 q 1461 231 1461 124 q 1445 387 1461 338 q 1385 436 1429 436 q 1324 387 1340 436 q 1308 231 1308 338 q 1324 74 1308 124 z "},"‹":{"ha":351,"x_min":46,"x_max":304,"o":"m 46 417 l 281 650 l 303 631 q 204 395 204 513 q 303 160 204 278 l 281 140 l 46 375 l 46 417 z "},"›":{"ha":351,"x_min":47,"x_max":306,"o":"m 304 375 l 69 140 l 47 160 q 147 395 147 278 q 47 631 147 513 l 69 650 l 304 417 l 304 375 z "},"€":{"ha":1031,"x_min":43,"x_max":971,"o":"m 43 419 l 139 419 q 135 496 135 456 q 139 574 135 536 l 43 574 l 43 613 l 143 613 q 316 904 176 811 q 661 997 456 997 q 833 980 760 997 q 965 932 906 963 l 946 697 l 910 697 q 814 888 869 819 q 663 957 758 957 q 506 874 558 957 q 442 613 453 790 l 751 613 l 751 574 l 440 574 q 439 497 439 550 q 440 419 439 443 l 751 419 l 751 381 l 442 381 q 506 119 453 203 q 664 35 558 35 q 817 106 760 35 q 915 296 875 176 l 951 296 l 971 60 q 663 -6 840 -6 q 317 88 457 -6 q 143 381 176 181 l 43 381 l 43 419 z "},"":{"ha":1367,"x_min":26,"x_max":1344,"o":"m 626 53 q 881 147 763 53 l 908 117 q 738 17 838 51 q 535 -17 639 -17 q 338 18 428 -17 q 188 110 247 53 q 88 244 129 168 q 36 402 46 319 q 35 568 26 485 q 84 726 43 651 q 184 860 125 801 q 336 952 243 918 q 542 986 429 986 q 722 970 626 986 q 881 924 818 954 l 861 686 l 822 686 q 782 785 804 742 q 726 866 760 828 q 647 925 693 904 q 543 946 600 946 q 336 790 408 947 q 292 438 265 638 q 440 121 319 224 q 626 53 519 53 m 1344 942 q 1286 922 1313 944 q 1260 836 1260 899 l 1260 133 q 1286 49 1260 71 q 1344 28 1313 26 l 1344 0 l 925 0 l 925 28 q 983 49 956 26 q 1010 135 1010 72 l 1010 271 l 1010 475 l 706 475 l 706 361 q 733 275 706 297 q 790 254 760 253 l 790 226 l 371 226 l 371 254 q 429 275 403 253 q 456 361 456 297 l 456 526 l 456 610 q 429 695 456 672 q 371 715 403 718 l 371 743 l 790 743 l 790 715 q 733 695 760 718 q 706 610 706 672 l 706 517 l 1010 517 l 1010 699 l 1010 835 q 983 922 1010 899 q 925 942 956 944 l 925 969 l 1344 969 l 1344 942 z "},"":{"ha":1294,"x_min":26,"x_max":1300,"o":"m 626 53 q 828 110 735 53 l 849 71 q 535 -17 714 -17 q 338 18 428 -17 q 188 110 247 53 q 88 244 129 168 q 36 402 46 319 q 35 568 26 485 q 84 726 43 651 q 184 860 125 801 q 336 952 243 918 q 542 986 429 986 q 722 970 626 986 q 881 924 818 954 l 864 722 l 861 686 l 822 686 q 811 721 817 704 q 785 779 799 753 q 543 946 700 946 q 419 901 472 946 q 332 779 365 857 q 319 746 325 764 q 285 522 283 646 q 328 292 288 397 q 356 231 339 258 q 356 228 356 229 q 357 226 357 226 q 379 190 367 207 q 626 53 472 53 m 1261 28 l 1299 28 l 1299 0 l 1007 0 q 949 10 967 0 q 913 47 931 19 l 889 92 l 867 129 l 721 394 l 699 365 l 699 361 q 726 275 699 297 q 783 254 753 253 l 783 226 l 364 226 l 364 254 q 421 274 394 253 q 449 357 447 296 l 449 614 q 421 696 447 674 q 364 715 394 718 l 364 743 l 783 743 l 783 715 q 726 695 753 718 q 699 610 699 672 l 699 472 l 699 414 l 1000 836 q 1034 900 1026 875 q 1035 933 1042 925 q 1013 942 1028 942 l 1013 969 l 1238 969 l 1238 942 q 1149 913 1208 942 q 1057 838 1090 883 l 839 538 q 916 518 889 538 q 965 457 943 499 l 1197 68 q 1261 28 1224 28 z "},"":{"ha":1757,"x_min":26,"x_max":1769,"o":"m 1626 135 q 1676 68 1646 93 q 1728 37 1707 43 q 1768 31 1750 31 l 1768 3 l 1328 3 l 1328 31 q 1356 38 1344 31 q 1370 69 1367 44 q 1351 138 1374 93 l 1310 233 l 961 233 l 944 197 q 780 33 893 83 q 535 -17 667 -17 q 338 18 428 -17 q 188 110 247 53 q 88 244 129 168 q 36 402 46 319 q 35 568 26 485 q 84 726 43 651 q 184 860 125 801 q 336 952 243 918 q 542 986 429 986 q 722 970 626 986 q 881 924 818 954 l 861 686 l 822 686 q 782 785 804 742 q 726 866 760 828 q 647 925 693 904 q 543 946 600 946 q 336 790 408 947 q 292 438 265 638 q 440 121 319 224 q 626 53 519 53 q 635 53 631 53 q 809 110 731 56 q 925 253 888 164 l 1228 967 l 1254 967 l 1625 138 l 1625 138 l 1626 135 m 975 269 l 1293 269 l 1128 642 l 975 269 z "},"":{"ha":1378,"x_min":22,"x_max":1390,"o":"m 481 43 q 658 83 593 43 q 746 224 722 122 l 778 224 l 778 -1 l 22 -1 l 22 28 q 79 48 53 25 q 106 133 106 71 l 106 697 l 101 697 l 101 835 q 97 847 100 839 q 83 873 93 854 q 63 906 72 892 q 42 931 53 919 q 22 942 31 942 l 22 972 l 438 972 l 438 944 q 383 926 408 946 q 356 849 357 906 l 356 43 l 481 43 m 1246 133 q 1296 68 1265 93 q 1348 37 1326 43 q 1389 31 1369 31 l 1389 3 l 944 3 l 944 31 q 974 37 963 29 q 990 68 986 44 q 969 136 993 92 l 925 231 l 582 231 l 569 203 q 559 145 554 165 q 574 119 564 125 q 601 114 585 113 l 601 86 l 388 86 l 388 115 q 428 122 407 115 q 479 152 449 128 q 528 217 510 176 l 847 965 l 874 965 l 1244 136 l 1244 138 l 1246 133 m 594 267 l 913 267 l 747 639 l 594 267 z "},"":{"ha":1268,"x_min":21,"x_max":1243,"o":"m 1211 275 l 1243 275 l 1243 0 l 21 0 l 21 28 q 79 49 53 26 q 106 135 106 71 l 106 271 l 106 699 l 106 835 q 79 921 106 899 q 21 942 53 943 l 21 969 l 439 969 l 439 942 q 384 923 410 943 q 356 846 358 903 l 356 42 l 949 42 q 1058 58 1013 42 q 1133 107 1104 74 q 1180 179 1163 140 q 1211 275 1197 218 m 1140 501 l 1140 225 l 503 225 l 503 253 q 561 274 535 251 q 588 360 588 297 l 588 835 q 561 920 588 897 q 503 942 535 943 l 503 968 l 1135 968 l 1135 699 l 1100 699 q 1071 783 1083 753 q 1038 845 1058 814 q 994 892 1018 876 q 933 917 969 907 q 846 928 896 928 l 844 928 l 844 635 l 1007 635 l 1007 593 l 844 593 l 844 267 l 846 267 q 922 274 889 267 q 981 297 956 281 q 1023 329 1006 313 q 1056 377 1040 346 q 1081 433 1071 408 q 1104 501 1090 458 l 1140 501 z "},"":{"ha":1276,"x_min":22,"x_max":1244,"o":"m 985 256 q 950 239 985 256 q 826 222 914 222 q 667 256 739 222 q 553 342 596 289 q 486 464 510 396 q 463 603 463 532 q 486 744 463 675 q 553 866 510 813 q 668 952 597 919 q 826 985 739 985 q 985 952 914 985 q 1101 866 1057 919 q 1168 744 1144 813 q 1192 603 1192 675 q 1168 464 1192 532 q 1101 342 1144 396 q 985 256 1057 289 m 722 944 q 661 717 643 904 q 760 388 679 538 q 913 258 836 243 q 931 264 922 260 q 992 494 1011 304 q 893 822 974 672 q 740 950 815 965 q 722 944 731 949 m 1213 275 l 1244 275 l 1244 0 l 22 0 l 22 28 q 81 49 54 26 q 107 135 107 71 l 107 271 l 107 699 l 107 835 q 81 921 107 899 q 22 942 54 943 l 22 969 l 440 969 l 440 942 q 385 923 411 943 q 357 846 360 903 l 357 42 l 950 42 q 1060 58 1014 42 q 1135 107 1106 74 q 1181 179 1164 140 q 1213 275 1199 218 z "},"":{"ha":1036,"x_min":21,"x_max":1022,"o":"m 990 275 l 1022 275 l 1022 0 l 21 0 l 21 28 q 79 49 53 26 q 106 135 106 71 l 106 271 l 106 699 l 106 835 q 79 921 106 899 q 21 942 53 943 l 21 969 l 439 969 l 439 942 q 384 923 410 943 q 356 846 358 903 l 356 42 l 728 42 q 838 58 792 42 q 913 107 883 74 q 959 179 942 140 q 990 275 976 218 m 586 225 l 489 225 l 489 253 q 540 269 515 251 q 571 333 565 286 l 571 861 q 540 926 565 908 q 489 942 515 943 l 489 969 l 907 969 l 907 942 q 856 926 881 943 q 825 861 831 908 l 825 333 q 856 269 831 286 q 907 253 881 251 l 907 225 l 586 225 z "},"":{"ha":1417,"x_min":21,"x_max":1383,"o":"m 1089 42 q 1199 58 1153 42 q 1274 107 1244 74 q 1320 179 1303 140 q 1351 275 1338 218 l 1383 275 l 1383 0 l 21 0 l 21 28 q 79 49 53 26 q 106 135 106 71 l 106 271 l 106 699 l 106 835 q 79 921 106 899 q 21 942 53 943 l 21 969 l 439 969 l 439 942 q 384 923 410 943 q 356 846 358 903 l 356 42 l 1089 42 m 1171 969 l 1383 969 l 1383 942 q 1329 924 1354 943 q 1300 851 1304 906 l 1300 601 q 1268 437 1299 511 q 1191 318 1238 363 q 1091 249 1144 274 q 986 225 1038 225 q 826 248 899 225 q 695 317 753 271 q 606 443 638 364 q 574 628 574 522 l 574 699 l 574 835 q 547 921 574 899 q 489 942 519 943 l 489 969 l 907 969 l 907 942 q 851 922 878 943 q 824 844 825 901 l 824 583 q 827 478 824 521 q 841 394 831 436 q 872 328 851 353 q 925 288 892 303 q 1006 272 958 272 q 1181 366 1107 272 q 1256 592 1256 460 l 1256 699 l 1256 835 q 1229 921 1256 899 q 1171 942 1203 943 l 1171 969 z "},"":{"ha":1563,"x_min":39,"x_max":1535,"o":"m 999 811 q 1028 744 999 776 q 1105 683 1058 711 q 1209 624 1151 654 q 1324 557 1267 593 q 1428 479 1381 521 q 1504 381 1475 438 q 1533 257 1533 324 q 1510 146 1533 194 q 1449 67 1486 97 q 1359 17 1411 38 q 1256 -10 1307 -3 q 1150 -17 1206 -17 q 1003 11 1068 -17 q 895 83 938 39 q 820 194 853 126 q 769 324 788 261 q 735 468 751 386 q 718 482 732 482 q 681 482 681 482 q 667 569 675 515 q 653 655 658 622 q 636 732 647 688 q 613 803 625 776 q 578 861 600 831 q 528 908 556 892 q 458 936 500 925 q 364 949 417 947 q 261 909 300 949 q 222 811 222 869 q 251 744 222 776 q 328 683 281 711 q 432 624 375 654 q 546 557 489 593 q 650 479 603 521 q 727 381 697 438 q 757 257 757 324 q 733 146 757 194 q 672 67 710 97 q 582 17 633 38 q 479 -10 531 -3 q 374 -17 428 -17 q 202 1 299 -17 q 47 49 106 19 l 82 293 l 115 293 q 199 90 135 158 q 367 21 264 21 q 492 67 444 21 q 539 179 539 113 q 518 253 539 219 q 462 313 497 288 q 381 364 426 338 q 290 413 336 390 q 198 465 243 435 q 118 530 153 496 q 62 613 83 564 q 40 718 40 661 q 60 828 40 781 q 110 905 79 876 q 187 951 142 933 q 276 976 232 969 q 374 985 321 983 q 528 957 458 985 q 646 884 599 929 q 731 773 693 839 q 790 641 768 707 q 828 496 811 575 q 843 482 831 483 l 844 482 q 846 482 846 482 q 878 482 878 482 q 893 394 886 444 q 905 309 900 344 q 918 232 910 274 q 936 161 926 190 q 964 103 946 132 q 1005 58 982 75 q 1063 30 1028 40 q 1144 21 1099 19 q 1269 67 1221 21 q 1317 179 1317 113 q 1295 253 1317 219 q 1238 313 1274 288 q 1158 364 1203 338 q 1067 413 1114 390 q 975 466 1019 435 q 895 531 931 497 q 838 613 860 564 q 817 718 817 661 q 838 834 817 785 q 894 912 860 883 q 977 957 928 940 q 1073 979 1026 974 q 1175 985 1119 985 q 1467 922 1344 985 l 1436 710 l 1403 710 q 1303 884 1371 819 q 1142 949 1235 949 q 1038 909 1078 949 q 999 811 999 869 z "},"":{"ha":1418,"x_min":10,"x_max":1408,"o":"m 10 969 l 1408 969 l 1408 690 l 1378 690 q 1359 738 1364 725 q 1342 780 1354 751 q 1324 819 1331 808 q 1303 851 1317 831 q 1278 880 1290 872 q 1249 901 1267 888 q 1213 918 1232 914 q 1169 926 1193 922 q 1115 931 1144 931 l 1069 931 l 1069 132 q 1096 49 1069 71 q 1154 28 1122 26 l 1154 0 l 735 0 l 735 28 q 793 49 767 26 q 819 132 819 71 l 819 931 l 794 931 q 786 931 790 931 l 599 931 l 599 132 q 625 49 599 71 q 682 28 651 26 l 682 0 l 264 0 l 264 28 q 321 49 294 26 q 349 132 347 71 l 349 931 l 301 931 q 235 924 265 931 q 184 910 206 918 q 144 883 163 901 q 113 850 125 864 q 88 807 101 836 q 67 760 74 778 q 46 706 60 742 q 40 690 42 694 l 10 690 l 10 969 z "},"":{"ha":1017,"x_min":10,"x_max":1006,"o":"m 983 103 l 1006 76 q 860 -1 947 25 q 687 -12 772 -28 q 563 67 601 4 q 458 9 518 32 q 337 -17 399 -14 q 222 -3 275 -19 q 135 59 168 13 q 101 178 101 106 l 101 636 l 11 636 l 11 672 q 74 677 56 672 q 117 703 92 682 l 363 922 l 375 922 l 375 672 l 443 672 q 485 674 469 672 q 513 688 500 676 q 533 715 526 700 q 543 765 539 731 q 548 839 547 800 q 549 946 549 878 l 794 1164 l 807 1164 l 807 672 l 986 672 l 986 636 l 807 636 l 807 210 q 817 142 807 171 q 846 93 826 113 q 901 75 865 74 q 983 103 936 76 m 375 636 l 375 210 q 384 143 375 172 q 413 94 393 114 q 466 75 432 75 q 546 100 500 75 q 533 178 533 135 l 533 636 l 375 636 z "},"ﬁ":{"ha":949,"x_min":17,"x_max":933,"o":"m 854 97 q 874 42 854 58 q 933 25 894 25 l 933 0 l 521 0 l 521 25 q 603 93 603 25 l 603 564 q 584 633 603 615 q 526 651 565 651 l 360 651 l 360 138 q 443 25 360 25 l 443 0 l 25 0 l 25 25 q 107 133 107 25 l 107 651 l 17 651 l 17 676 l 107 676 l 107 724 q 128 865 107 799 q 194 990 150 932 q 314 1081 238 1047 q 490 1114 390 1114 q 614 1099 558 1114 q 702 1063 669 1083 q 760 1010 735 1042 q 797 958 786 979 q 817 911 807 938 q 818 906 817 908 l 818 906 q 824 872 824 889 q 793 799 824 829 q 719 768 763 768 q 644 799 675 768 q 614 872 614 829 q 615 889 614 881 l 614 889 q 624 1041 643 999 q 535 1083 606 1083 q 467 1070 497 1083 q 419 1038 438 1057 q 387 988 400 1018 q 368 929 374 957 q 360 865 363 901 q 357 806 357 829 q 358 752 357 783 q 360 714 360 721 l 360 676 l 526 676 l 854 678 l 854 97 z "},"ﬆ":{"ha":1172,"x_min":42,"x_max":1161,"o":"m 1139 103 l 1161 76 q 1058 14 1119 39 q 934 -16 997 -11 q 815 -6 871 -21 q 724 57 760 10 q 689 178 689 104 l 689 636 l 599 636 l 599 672 q 661 677 643 672 q 704 703 679 682 l 924 899 q 928 951 928 924 q 840 1165 928 1076 q 626 1253 751 1253 q 413 1165 501 1253 q 324 951 324 1076 q 378 778 324 856 q 519 668 433 701 q 547 660 535 664 q 581 644 568 651 l 578 617 l 565 478 l 543 478 q 460 621 510 574 q 324 668 410 668 q 203 596 203 668 q 234 543 203 569 q 313 495 265 517 q 414 444 360 474 q 515 383 468 414 q 594 303 563 351 q 625 197 625 254 q 599 92 625 136 q 530 26 574 49 q 438 -8 486 3 q 335 -18 390 -18 q 49 43 169 -18 l 67 231 l 88 231 q 165 69 110 122 q 319 15 219 15 q 406 45 375 15 q 436 114 436 75 q 407 180 436 150 q 334 231 378 210 q 240 278 290 251 q 145 333 189 306 q 72 406 101 360 q 43 507 43 451 q 326 699 43 699 q 410 690 358 699 q 320 806 353 738 q 288 951 288 874 q 387 1190 288 1090 q 626 1289 486 1289 q 865 1190 765 1289 q 964 951 964 1090 q 963 917 964 933 l 963 672 l 1142 672 l 1142 636 l 963 636 l 963 210 q 972 142 963 171 q 1001 93 982 113 q 1056 75 1021 74 q 1139 103 1092 76 z "}}}
